<svg xmlns="http://www.w3.org/2000/svg" xmlns:xlink="http://www.w3.org/1999/xlink" width="1440" height="1190" fill="none" xmlns:v="https://vecta.io/nano"><g clip-path="url(#C)"><g filter="url(#A)"><path d="M1057.44 705L426 910l237.978-328 131.42-307L1452.94 22 1746 763l-688.56-58z" fill="url(#B)" fill-opacity=".4"/></g><g opacity=".05" stroke="#fff" stroke-width="3"><use xlink:href="#D" opacity=".01"/><use xlink:href="#E" opacity=".02"/><use xlink:href="#F" opacity=".03"/><use xlink:href="#G" opacity=".04"/><use xlink:href="#H" opacity=".051"/><use xlink:href="#I" opacity=".061"/><use xlink:href="#J" opacity=".071"/><use xlink:href="#K" opacity=".081"/><use xlink:href="#L" opacity=".091"/><use xlink:href="#M" opacity=".101"/><use xlink:href="#N" opacity=".111"/><use xlink:href="#O" opacity=".121"/><use xlink:href="#P" opacity=".131"/><use xlink:href="#Q" opacity=".141"/><use xlink:href="#R" opacity=".152"/><use xlink:href="#S" opacity=".162"/><use xlink:href="#T" opacity=".172"/><use xlink:href="#U" opacity=".182"/><use xlink:href="#V" opacity=".192"/><use xlink:href="#W" opacity=".202"/><use xlink:href="#X" opacity=".212"/><use xlink:href="#Y" opacity=".222"/><use xlink:href="#Z" opacity=".232"/><use xlink:href="#a" opacity=".242"/><use xlink:href="#b" opacity=".253"/><use xlink:href="#c" opacity=".263"/><use xlink:href="#d" opacity=".273"/><use xlink:href="#e" opacity=".283"/><use xlink:href="#f" opacity=".293"/><use xlink:href="#g" opacity=".303"/><use xlink:href="#h" opacity=".313"/><use xlink:href="#i" opacity=".323"/><use xlink:href="#j" opacity=".333"/><use xlink:href="#k" opacity=".343"/><use xlink:href="#l" opacity=".354"/><use xlink:href="#m" opacity=".364"/><use xlink:href="#n" opacity=".374"/><use xlink:href="#o" opacity=".384"/><use xlink:href="#p" opacity=".394"/><use xlink:href="#q" opacity=".404"/><use xlink:href="#r" opacity=".414"/><use xlink:href="#s" opacity=".424"/><use xlink:href="#t" opacity=".434"/><use xlink:href="#u" opacity=".444"/><use xlink:href="#v" opacity=".455"/><use xlink:href="#w" opacity=".465"/><use xlink:href="#x" opacity=".475"/><use xlink:href="#y" opacity=".485"/><use xlink:href="#z" opacity=".495"/><use xlink:href="#AA" opacity=".505"/><use xlink:href="#AB" opacity=".515"/><use xlink:href="#AC" opacity=".525"/><use xlink:href="#AD" opacity=".535"/><use xlink:href="#AE" opacity=".545"/><use xlink:href="#AF" opacity=".556"/><use xlink:href="#AG" opacity=".566"/><use xlink:href="#AH" opacity=".576"/><use xlink:href="#AI" opacity=".586"/><use xlink:href="#AJ" opacity=".596"/><use xlink:href="#AK" opacity=".606"/><use xlink:href="#AL" opacity=".616"/><use xlink:href="#AM" opacity=".626"/><use xlink:href="#AN" opacity=".636"/><use xlink:href="#AO" opacity=".646"/><use xlink:href="#AP" opacity=".657"/><use xlink:href="#AQ" opacity=".667"/><use xlink:href="#AR" opacity=".677"/><use xlink:href="#AS" opacity=".687"/><use xlink:href="#AT" opacity=".697"/><use xlink:href="#AU" opacity=".707"/><use xlink:href="#AV" opacity=".717"/><use xlink:href="#AW" opacity=".727"/><use xlink:href="#AX" opacity=".737"/><use xlink:href="#AY" opacity=".747"/><use xlink:href="#AZ" opacity=".758"/><use xlink:href="#Aa" opacity=".768"/><use xlink:href="#Ab" opacity=".778"/><use xlink:href="#Ac" opacity=".788"/><use xlink:href="#Ad" opacity=".798"/><use xlink:href="#Ae" opacity=".808"/><use xlink:href="#Af" opacity=".818"/><use xlink:href="#Ag" opacity=".828"/><use xlink:href="#Ah" opacity=".838"/><use xlink:href="#Ai" opacity=".848"/><use xlink:href="#Aj" opacity=".859"/><use xlink:href="#Ak" opacity=".869"/><use xlink:href="#Al" opacity=".879"/><use xlink:href="#Am" opacity=".889"/><use xlink:href="#An" opacity=".899"/><use xlink:href="#Ao" opacity=".909"/><use xlink:href="#Ap" opacity=".919"/><use xlink:href="#Aq" opacity=".929"/><use xlink:href="#Ar" opacity=".939"/><use xlink:href="#As" opacity=".949"/><use xlink:href="#At" opacity=".96"/><use xlink:href="#Au" opacity=".97"/><use xlink:href="#Av" opacity=".98"/><use xlink:href="#Aw" opacity=".99"/><use xlink:href="#Ax"/></g><g filter="url(#A)"><path d="M1057.44 705L426 910l237.978-328 131.42-307L1452.94 22 1746 763l-688.56-58z" fill="url(#B)" fill-opacity=".4"/></g><g opacity=".05" stroke="#fff" stroke-width="3"><use xlink:href="#D" opacity=".01"/><use xlink:href="#E" opacity=".02"/><use xlink:href="#F" opacity=".03"/><use xlink:href="#G" opacity=".04"/><use xlink:href="#H" opacity=".051"/><use xlink:href="#I" opacity=".061"/><use xlink:href="#J" opacity=".071"/><use xlink:href="#K" opacity=".081"/><use xlink:href="#L" opacity=".091"/><use xlink:href="#M" opacity=".101"/><use xlink:href="#N" opacity=".111"/><use xlink:href="#O" opacity=".121"/><use xlink:href="#P" opacity=".131"/><use xlink:href="#Q" opacity=".141"/><use xlink:href="#R" opacity=".152"/><use xlink:href="#S" opacity=".162"/><use xlink:href="#T" opacity=".172"/><use xlink:href="#U" opacity=".182"/><use xlink:href="#V" opacity=".192"/><use xlink:href="#W" opacity=".202"/><use xlink:href="#X" opacity=".212"/><use xlink:href="#Y" opacity=".222"/><use xlink:href="#Z" opacity=".232"/><use xlink:href="#a" opacity=".242"/><use xlink:href="#b" opacity=".253"/><use xlink:href="#c" opacity=".263"/><use xlink:href="#d" opacity=".273"/><use xlink:href="#e" opacity=".283"/><use xlink:href="#f" opacity=".293"/><use xlink:href="#g" opacity=".303"/><use xlink:href="#h" opacity=".313"/><use xlink:href="#i" opacity=".323"/><use xlink:href="#j" opacity=".333"/><use xlink:href="#k" opacity=".343"/><use xlink:href="#l" opacity=".354"/><use xlink:href="#m" opacity=".364"/><use xlink:href="#n" opacity=".374"/><use xlink:href="#o" opacity=".384"/><use xlink:href="#p" opacity=".394"/><use xlink:href="#q" opacity=".404"/><use xlink:href="#r" opacity=".414"/><use xlink:href="#s" opacity=".424"/><use xlink:href="#t" opacity=".434"/><use xlink:href="#u" opacity=".444"/><use xlink:href="#v" opacity=".455"/><use xlink:href="#w" opacity=".465"/><use xlink:href="#x" opacity=".475"/><use xlink:href="#y" opacity=".485"/><use xlink:href="#z" opacity=".495"/><use xlink:href="#AA" opacity=".505"/><use xlink:href="#AB" opacity=".515"/><use xlink:href="#AC" opacity=".525"/><use xlink:href="#AD" opacity=".535"/><use xlink:href="#AE" opacity=".545"/><use xlink:href="#AF" opacity=".556"/><use xlink:href="#AG" opacity=".566"/><use xlink:href="#AH" opacity=".576"/><use xlink:href="#AI" opacity=".586"/><use xlink:href="#AJ" opacity=".596"/><use xlink:href="#AK" opacity=".606"/><use xlink:href="#AL" opacity=".616"/><use xlink:href="#AM" opacity=".626"/><use xlink:href="#AN" opacity=".636"/><use xlink:href="#AO" opacity=".646"/><use xlink:href="#AP" opacity=".657"/><use xlink:href="#AQ" opacity=".667"/><use xlink:href="#AR" opacity=".677"/><use xlink:href="#AS" opacity=".687"/><use xlink:href="#AT" opacity=".697"/><use xlink:href="#AU" opacity=".707"/><use xlink:href="#AV" opacity=".717"/><use xlink:href="#AW" opacity=".727"/><use xlink:href="#AX" opacity=".737"/><use xlink:href="#AY" opacity=".747"/><use xlink:href="#AZ" opacity=".758"/><use xlink:href="#Aa" opacity=".768"/><use xlink:href="#Ab" opacity=".778"/><use xlink:href="#Ac" opacity=".788"/><use xlink:href="#Ad" opacity=".798"/><use xlink:href="#Ae" opacity=".808"/><use xlink:href="#Af" opacity=".818"/><use xlink:href="#Ag" opacity=".828"/><use xlink:href="#Ah" opacity=".838"/><use xlink:href="#Ai" opacity=".848"/><use xlink:href="#Aj" opacity=".859"/><use xlink:href="#Ak" opacity=".869"/><use xlink:href="#Al" opacity=".879"/><use xlink:href="#Am" opacity=".889"/><use xlink:href="#An" opacity=".899"/><use xlink:href="#Ao" opacity=".909"/><use xlink:href="#Ap" opacity=".919"/><use xlink:href="#Aq" opacity=".929"/><use xlink:href="#Ar" opacity=".939"/><use xlink:href="#As" opacity=".949"/><use xlink:href="#At" opacity=".96"/><use xlink:href="#Au" opacity=".97"/><use xlink:href="#Av" opacity=".98"/><use xlink:href="#Aw" opacity=".99"/><use xlink:href="#Ax"/></g></g><defs><filter id="A" x="226" y="-178" width="1720" height="1288" filterUnits="userSpaceOnUse" color-interpolation-filters="sRGB"><feFlood flood-opacity="0"/><feBlend in="SourceGraphic"/><feGaussianBlur stdDeviation="100"/></filter><radialGradient id="B" cx="0" cy="0" r="1" gradientUnits="userSpaceOnUse" gradientTransform="translate(1139 695.998) rotate(46.7455) scale(130.439 130.544)"><stop offset=".008" stop-color="#fef1e7"/><stop offset=".251" stop-color="#f7ca55" stop-opacity="0"/><stop offset=".737" stop-color="#f79c55"/></radialGradient><clipPath id="C"><path fill="#fff" d="M0 0h1440v1190H0z"/></clipPath><path id="D" d="M165.098 235.057l518.623-975.388a18.5 18.5 0 0 1 19.547-9.534L1791.18-558.036a18.51 18.51 0 0 1 15.11 15.644l153.74 1093.945c1.12 7.936-3 15.688-10.21 19.202L956.928 1055.02c-7.203 3.52-15.85 1.99-21.418-3.77L168.124 256.594a18.5 18.5 0 0 1-3.026-21.537z"/><path id="E" d="M154.298 221.817l534.564-964.379c3.886-7.01 11.843-10.721 19.711-9.192L1790.94-541.362c7.87 1.529 13.86 7.95 14.83 15.905l134.38 1094.408a18.5 18.5 0 0 1-10.54 19.021L930.287 1053.96a18.5 18.5 0 0 1-21.349-4.15L156.949 243.403c-5.466-5.862-6.536-14.577-2.651-21.586z"/><path id="F" d="M143.797 208.609l550.279-953.111a18.5 18.5 0 0 1 19.868-8.846L1790.45-524.529a18.49 18.49 0 0 1 14.55 16.162l115.04 1094.528a18.5 18.5 0 0 1-10.87 18.835L903.76 1052.63c-7.322 3.26-15.91 1.44-21.273-4.52L146.07 230.237a18.5 18.5 0 0 1-2.273-21.628z"/><path id="G" d="M133.587 195.433L699.35-746.156a18.5 18.5 0 0 1 20.019-8.497L1789.7-507.547c7.81 1.803 13.57 8.429 14.27 16.413l95.74 1094.309c.7 7.984-3.82 15.51-11.2 18.642L877.346 1051.03a18.5 18.5 0 0 1-21.19-4.89L135.482 217.098a18.5 18.5 0 0 1-1.895-21.665z"/><path id="H" d="M123.673 182.299l581.014-929.817a18.5 18.5 0 0 1 20.165-8.147L1788.7-490.417a18.5 18.5 0 0 1 13.98 16.66l76.48 1093.749c.56 7.995-4.09 15.441-11.52 18.443L851.057 1049.16c-7.431 3-15.95.88-21.102-5.26L125.19 203.994a18.5 18.5 0 0 1-1.517-21.695z"/><path id="I" d="M114.049 169.205l596.026-917.8a18.5 18.5 0 0 1 20.304-7.793L1787.44-473.15a18.51 18.51 0 0 1 13.69 16.902l57.27 1092.851a18.5 18.5 0 0 1-11.84 18.239L824.892 1047.02c-7.483 2.88-15.964.6-21.007-5.63L115.187 190.924a18.5 18.5 0 0 1-1.138-21.719z"/><path id="J" d="M104.72 156.16l610.797-905.543a18.5 18.5 0 0 1 20.436-7.438L1785.92-455.747c7.71 2.209 13.11 9.128 13.39 17.137l38.12 1091.617a18.5 18.5 0 0 1-12.16 18.03L798.861 1044.62a18.51 18.51 0 0 1-20.906-5.99L105.479 177.895c-4.934-6.316-5.24-15.09-.759-21.735z"/><path id="K" d="M95.678 143.177l625.321-893.051a18.5 18.5 0 0 1 20.563-7.08L1784.14-438.207a18.51 18.51 0 0 1 13.09 17.369l19.02 1090.047c.14 8.014-4.89 15.206-12.47 17.815L772.962 1041.96c-7.578 2.61-15.974.05-20.798-6.36L96.058 164.921a18.5 18.5 0 0 1-.38-21.744z"/><path id="L" d="M86.926 130.246l639.595-880.328a18.5 18.5 0 0 1 20.684-6.72L1782.09-420.547a18.51 18.51 0 0 1 12.79 17.594V685.192a18.51 18.51 0 0 1-12.79 17.594L747.205 1039.04c-7.622 2.48-15.973-.23-20.684-6.72L86.926 151.994a18.5 18.5 0 0 1 0-21.748z"/><path id="M" d="M78.458 117.381l653.616-867.378a18.5 18.5 0 0 1 20.798-6.359L1779.78-402.765a18.51 18.51 0 0 1 12.47 17.815L1773.3 700.96a18.51 18.51 0 0 1-13.09 17.369L721.589 1035.87c-7.665 2.34-15.966-.52-20.563-7.08L78.079 139.125a18.5 18.5 0 0 1 .379-21.744z"/><path id="N" d="M70.277 104.591l667.381-854.209a18.5 18.5 0 0 1 20.906-5.995L1777.2-384.861a18.5 18.5 0 0 1 12.16 18.03l-37.83 1083.346c-.28 8.01-5.69 14.929-13.39 17.138L696.124 1032.45c-7.705 2.2-15.955-.8-20.437-7.44L69.518 126.325a18.5 18.5 0 0 1 .759-21.734z"/><path id="O" d="M62.377 91.867l680.886-840.823a18.5 18.5 0 0 1 21.007-5.629l1010.08 387.732a18.5 18.5 0 0 1 11.84 18.24L1729.57 731.84a18.51 18.51 0 0 1-13.69 16.902L670.808 1028.77a18.5 18.5 0 0 1-20.304-7.8L61.239 113.585a18.5 18.5 0 0 1 1.138-21.718z"/><path id="P" d="M54.76 79.23l694.126-827.228c5.152-6.139 13.671-8.263 21.103-5.261L1771.23-348.733c7.43 3.002 12.08 10.448 11.52 18.443l-75.33 1077.239a18.5 18.5 0 0 1-13.98 16.66L645.651 1024.85c-7.777 1.94-15.917-1.35-20.165-8.14L53.243 100.925A18.5 18.5 0 0 1 54.76 79.23z"/><path id="Q" d="M47.421 66.674l707.101-813.426a18.5 18.5 0 0 1 21.19-4.892l992.118 421.13c7.38 3.131 11.9 10.657 11.2 18.642L1685.1 761.826c-.7 7.984-6.46 14.611-14.27 16.413L620.653 1020.69c-7.809 1.8-15.891-1.63-20.019-8.5L45.526 88.339a18.5 18.5 0 0 1 1.895-21.665z"/><path id="R" d="M40.359 54.209l719.804-799.424a18.5 18.5 0 0 1 21.273-4.521l982.734 437.539c7.32 3.26 11.71 10.863 10.87 18.834L1662.59 776.475a18.49 18.49 0 0 1-14.55 16.162L595.819 1016.29c-7.84 1.67-15.861-1.9-19.868-8.84L38.086 75.838a18.5 18.5 0 0 1 2.273-21.629z"/><path id="S" d="M33.572 41.837l732.236-785.226a18.5 18.5 0 0 1 21.348-4.15L1760.22-293.79c7.27 3.387 11.52 11.066 10.55 19.021L1639.92 790.89a18.5 18.5 0 0 1-14.83 15.906L571.154 1011.66a18.5 18.5 0 0 1-19.711-9.19L30.922 63.423a18.5 18.5 0 0 1 2.65-21.586z"/><path id="T" d="M27.058 29.566l744.391-770.839a18.5 18.5 0 0 1 21.418-3.777l963.143 469.756c7.2 3.513 11.32 11.265 10.21 19.202L1617.08 805.073a18.49 18.49 0 0 1-15.11 15.644L546.661 1006.8c-7.893 1.39-15.784-2.46-19.547-9.537L24.031 51.103a18.5 18.5 0 0 1 3.027-21.536z"/><path id="U" d="M20.816 17.395l756.267-756.268a18.5 18.5 0 0 1 21.481-3.402l952.956 485.553c7.14 3.639 11.12 11.462 9.87 19.378L1594.08 819.013c-1.25 7.916-7.46 14.124-15.38 15.378L522.345 1001.7c-7.916 1.26-15.739-2.731-19.378-9.872L17.413 38.875a18.5 18.5 0 0 1 3.402-21.48z"/><path id="V" d="M14.84 5.334l767.863-741.516a18.5 18.5 0 0 1 21.536-3.027l942.511 501.14a18.51 18.51 0 0 1 9.53 19.547L1570.92 832.716c-1.39 7.893-7.71 13.992-15.65 15.108L498.207 996.385a18.5 18.5 0 0 1-19.202-10.21L11.063 26.752A18.5 18.5 0 0 1 14.84 5.334z"/><path id="W" d="M9.131-6.617l779.174-726.592a18.5 18.5 0 0 1 21.586-2.65L1741.7-219.35a18.5 18.5 0 0 1 9.19 19.711L1547.61 846.173a18.51 18.51 0 0 1-15.91 14.832L474.254 990.843a18.5 18.5 0 0 1-19.021-10.543L4.981 14.732a18.5 18.5 0 0 1 4.15-21.348z"/><path id="X" d="M3.686-18.447l790.199-711.499a18.5 18.5 0 0 1 21.629-2.273L1736.37-200.56a18.5 18.5 0 0 1 8.85 19.868L1524.14 859.389c-1.66 7.84-8.19 13.715-16.16 14.553L450.488 985.089c-7.97.837-15.574-3.553-18.834-10.874L-.836 2.826a18.5 18.5 0 0 1 4.522-21.273z"/><path id="Y" d="M-1.502-30.159l800.935-696.242a18.5 18.5 0 0 1 21.665-1.895l909.672 546.583c6.87 4.128 10.3 12.21 8.49 20.02L1500.53 872.355c-1.8 7.81-8.42 13.57-16.41 14.268L426.911 979.117a18.5 18.5 0 0 1-18.642-11.201L-6.394-8.968a18.5 18.5 0 0 1 4.892-21.191z"/><path id="Z" d="M-6.431-41.742L804.947-722.57c6.14-5.151 14.898-5.764 21.695-1.517l898.238 561.28c6.79 4.247 10.08 12.388 8.14 20.164L1476.79 885.075a18.51 18.51 0 0 1-16.66 13.979L403.526 972.939a18.5 18.5 0 0 1-18.443-11.525L-11.693-20.64a18.5 18.5 0 0 1 5.261-21.102z"/><path id="a" d="M-11.103-53.196l821.53-665.262a18.5 18.5 0 0 1 21.718-1.138l886.565 575.744c6.72 4.365 9.87 12.562 7.8 20.304l-273.6 1021.09a18.51 18.51 0 0 1-16.91 13.687L380.343 966.554c-8.004.419-15.368-4.363-18.24-11.845L-16.731-32.189a18.5 18.5 0 0 1 5.629-21.007z"/><path id="b" d="M-15.523-64.516l831.385-649.549a18.5 18.5 0 0 1 21.735-.759l874.664 589.972c6.65 4.482 9.65 12.732 7.44 20.437L1428.89 909.756c-2.2 7.704-9.12 13.11-17.13 13.389L357.357 959.966c-8.009.279-15.288-4.63-18.03-12.162L-21.518-43.611a18.5 18.5 0 0 1 5.995-20.906z"/><path id="c" d="M-19.696-75.7l840.941-633.695a18.5 18.5 0 0 1 21.745-.379l862.55 603.96c6.56 4.597 9.42 12.899 7.08 20.563L1404.76 921.712c-2.35 7.665-9.36 12.949-17.37 13.089L334.575 953.178c-8.014.139-15.206-4.897-17.815-12.475L-26.055-54.902A18.5 18.5 0 0 1-19.696-75.7z"/><path id="d" d="M-23.62-86.735l850.199-617.705a18.5 18.5 0 0 1 21.748 0L1698.53-86.736c6.48 4.711 9.19 13.061 6.72 20.684L1380.5 933.417c-2.48 7.623-9.58 12.784-17.59 12.784H312.001a18.5 18.5 0 0 1-17.594-12.784L-30.341-66.052a18.5 18.5 0 0 1 6.72-20.684z"/><path id="e" d="M-27.302-97.628l859.156-601.587a18.5 18.5 0 0 1 21.745.38L1691.23-67.631c6.41 4.823 8.97 13.22 6.36 20.798L1356.13 944.86c-2.61 7.578-9.81 12.614-17.82 12.475L289.636 939.03a18.5 18.5 0 0 1-17.369-13.088L-34.383-77.065a18.5 18.5 0 0 1 7.081-20.563z"/><path id="f" d="M-30.744-108.364l867.808-585.344a18.5 18.5 0 0 1 21.735.759L1683.66-48.495a18.5 18.5 0 0 1 6 20.906l-358.02 983.639a18.5 18.5 0 0 1-18.03 12.161L267.483 931.679c-8.01-.28-14.928-5.686-17.138-13.39L-38.182-87.927a18.5 18.5 0 0 1 7.438-20.437z"/><path id="g" d="M-33.949-118.952l876.157-568.983a18.5 18.5 0 0 1 21.718 1.139L1675.81-29.347c6.23 5.044 8.5 13.525 5.63 21.007l-374.39 975.309c-2.87 7.482-10.23 12.264-18.24 11.845L245.546 924.139a18.5 18.5 0 0 1-16.901-13.687L-41.743-98.648a18.5 18.5 0 0 1 7.794-20.304z"/><path id="h" d="M-36.92-129.371L847.279-681.88a18.5 18.5 0 0 1 21.695 1.517L1667.67-10.175c6.14 5.152 8.27 13.671 5.27 21.102l-390.58 966.709a18.5 18.5 0 0 1-18.44 11.524L223.828 916.431c-7.995-.56-14.721-6.203-16.66-13.98L-45.067-109.207a18.5 18.5 0 0 1 8.147-20.164z"/><path id="i" d="M-39.662-139.639l891.934-535.927a18.5 18.5 0 0 1 21.665 1.895L1659.26 8.997a18.5 18.5 0 0 1 4.89 21.191l-406.58 957.84a18.5 18.5 0 0 1-18.64 11.201l-1036.601-90.69a18.5 18.5 0 0 1-16.413-14.268L-48.159-119.619a18.5 18.5 0 0 1 8.498-20.02z"/><path id="j" d="M-42.175-149.733l899.359-519.246a18.5 18.5 0 0 1 21.629 2.274L1650.56 28.18c5.96 5.363 7.78 13.951 4.52 21.273l-422.39 948.708c-3.26 7.319-10.86 11.709-18.83 10.879L181.056 900.484a18.5 18.5 0 0 1-16.162-14.553L-51.021-129.866a18.5 18.5 0 0 1 8.846-19.867z"/><path id="k" d="M-44.464-159.658l906.475-502.467a18.5 18.5 0 0 1 21.586 2.65L1641.59 47.363a18.5 18.5 0 0 1 4.15 21.349l-438.01 939.318c-3.39 7.26-11.07 11.52-19.02 10.54L160.01 892.265a18.5 18.5 0 0 1-15.906-14.832L-53.655-139.947a18.5 18.5 0 0 1 9.191-19.711z"/><path id="l" d="M-46.533-169.408l913.279-485.6c7.077-3.762 15.771-2.541 21.537 3.027L1632.33 66.541a18.5 18.5 0 0 1 3.78 21.418l-453.43 929.672c-3.51 7.2-11.27 11.32-19.2 10.21L139.191 883.885a18.5 18.5 0 0 1-15.644-15.108L-56.067-149.861a18.5 18.5 0 0 1 9.534-19.547z"/><path id="m" d="M-48.387-178.983L871.384-647.63a18.5 18.5 0 0 1 21.48 3.402L1622.8 85.707c5.67 5.667 7.04 14.339 3.4 21.48l-468.65 919.773a18.48 18.48 0 0 1-19.37 9.87L118.602 875.348a18.5 18.5 0 0 1-15.378-15.378L-58.261-159.605a18.5 18.5 0 0 1 9.873-19.378z"/><path id="n" d="M-50.026-188.371l925.951-451.617a18.5 18.5 0 0 1 21.418 3.776l715.647 741.075c5.57 5.765 6.79 14.46 3.03 21.537l-483.66 909.63c-3.76 7.07-11.65 10.92-19.55 9.53L98.249 866.664a18.5 18.5 0 0 1-15.107-15.644L-60.236-169.169a18.5 18.5 0 0 1 10.21-19.202z"/><path id="o" d="M-51.457-197.58L880.36-632.093c7.264-3.387 15.883-1.712 21.349 4.149L1602.9 123.995a18.49 18.49 0 0 1 2.65 21.586L1107.1 1044.82c-3.89 7.01-11.85 10.72-19.71 9.19L78.131 857.83c-7.867-1.53-13.855-7.951-14.832-15.906L-62-178.559a18.5 18.5 0 0 1 10.544-19.021z"/><path id="p" d="M-52.683-206.601l937.369-417.343a18.5 18.5 0 0 1 21.273 4.522l686.581 762.524a18.5 18.5 0 0 1 2.27 21.629l-513.04 888.609c-4 6.94-12.03 10.51-19.86 8.85L58.25 848.852a18.5 18.5 0 0 1-14.552-16.162L-63.557-187.766a18.5 18.5 0 0 1 10.874-18.835z"/><path id="q" d="M-53.705-215.432L888.9-615.544a18.5 18.5 0 0 1 21.19 4.892l671.81 772.829a18.51 18.51 0 0 1 1.9 21.665l-527.41 877.748a18.51 18.51 0 0 1-20.02 8.5L38.61 839.734a18.5 18.5 0 0 1-14.268-16.413L-64.906-196.791a18.5 18.5 0 0 1 11.201-18.641z"/><path id="r" d="M-54.53-224.066l947.526-382.826a18.5 18.5 0 0 1 21.102 5.262l656.892 782.851c5.15 6.139 5.76 14.898 1.52 21.695l-541.55 866.654c-4.25 6.8-12.39 10.09-20.16 8.15L19.212 830.487a18.5 18.5 0 0 1-13.979-16.66l-71.287-1019.45a18.5 18.5 0 0 1 11.525-18.443z"/><path id="s" d="M-55.161-232.498L896.97-597.987a18.5 18.5 0 0 1 21.007 5.628L1559.8 200.23c5.05 6.228 5.51 14.996 1.14 21.718l-555.46 855.332a18.5 18.5 0 0 1-20.304 7.8L.056 821.115a18.5 18.5 0 0 1-13.686-16.901L-67.006-214.259a18.5 18.5 0 0 1 11.845-18.239z"/><path id="t" d="M-55.601-240.737L900.82-588.846a18.5 18.5 0 0 1 20.905 5.995l626.625 802.039a18.51 18.51 0 0 1 .76 21.735L979.958 1084.72c-4.482 6.64-12.732 9.65-20.436 7.44L-18.852 811.613a18.5 18.5 0 0 1-13.389-17.138L-67.762-222.707a18.5 18.5 0 0 1 12.161-18.03z"/><path id="u" d="M-55.856-248.765l960.394-330.69a18.5 18.5 0 0 1 20.798 6.358l611.284 811.2c4.82 6.401 4.98 15.18.38 21.745L954.398 1091.89c-4.597 6.56-12.898 9.42-20.563 7.08l-971.35-296.973c-7.664-2.344-12.948-9.356-13.088-17.369L-68.33-230.95a18.5 18.5 0 0 1 12.474-17.815z"/><path id="v" d="M-55.929-256.59l964.051-313.239a18.5 18.5 0 0 1 20.684 6.721l595.814 820.071c4.71 6.484 4.71 15.264 0 21.748L928.806 1098.78c-4.711 6.49-13.061 9.2-20.684 6.72L-55.929 792.263a18.5 18.5 0 0 1-12.783-17.594V-238.995a18.5 18.5 0 0 1 12.783-17.595z"/><path id="w" d="M-55.823-264.207L911.57-559.969a18.5 18.5 0 0 1 20.563 7.081l580.227 828.65c4.6 6.565 4.44 15.344-.38 21.745L903.188 1105.4c-4.824 6.4-13.22 8.97-20.798 6.36L-74.092 782.418a18.5 18.5 0 0 1-12.474-17.815l17.655-1011.441a18.5 18.5 0 0 1 13.088-17.369z"/><path id="x" d="M-55.543-271.612l970.419-278.263a18.5 18.5 0 0 1 20.436 7.438l564.518 836.935c4.48 6.645 4.18 15.419-.76 21.735L877.547 1111.75a18.5 18.5 0 0 1-20.906 6L-92.003 772.467a18.5 18.5 0 0 1-12.161-18.03l35.232-1008.911a18.5 18.5 0 0 1 13.389-17.138z"/><path id="y" d="M-55.093-278.802l973.129-260.749a18.5 18.5 0 0 1 20.304 7.794l548.7 844.925c4.37 6.721 3.91 15.489-1.14 21.718L851.889 1117.83c-5.044 6.23-13.525 8.5-21.007 5.63l-940.543-361.044c-7.482-2.872-12.264-10.236-11.845-18.24L-68.779-261.9a18.5 18.5 0 0 1 13.686-16.902z"/><path id="z" d="M-54.478-285.773l975.524-243.226c7.777-1.939 15.918 1.351 20.165 8.147l532.779 852.618c4.24 6.797 3.63 15.556-1.52 21.695L826.217 1123.63c-5.152 6.14-13.671 8.27-21.102 5.26l-932.18-376.62c-7.431-3.003-12.084-10.449-11.525-18.444l70.133-1002.939a18.5 18.5 0 0 1 13.979-16.66z"/><path id="AA" d="M-53.702-292.523l977.604-225.698a18.5 18.5 0 0 1 20.02 8.498l516.748 860.012c4.13 6.87 3.36 15.617-1.9 21.666L800.537 1129.17a18.5 18.5 0 0 1-21.191 4.89l-923.56-392.026a18.5 18.5 0 0 1-11.201-18.642L-67.97-276.11a18.5 18.5 0 0 1 14.268-16.413z"/><path id="AB" d="M-52.77-299.052l979.371-208.172a18.5 18.5 0 0 1 19.868 8.846L1447.09 368.73a18.5 18.5 0 0 1-2.27 21.629L774.854 1134.43c-5.363 5.96-13.952 7.78-21.273 4.53l-914.688-407.25a18.5 18.5 0 0 1-10.874-18.835L-67.322-282.89a18.5 18.5 0 0 1 14.552-16.162z"/><path id="AC" d="M-51.683-305.356L929.14-496.009c7.868-1.529 15.825 2.182 19.711 9.191l484.409 873.904a18.49 18.49 0 0 1-2.65 21.586L749.173 1139.43c-5.466 5.86-14.085 7.53-21.348 4.15l-905.567-422.275a18.5 18.5 0 0 1-10.543-19.022L-66.516-289.45a18.5 18.5 0 0 1 14.832-15.906z"/><path id="AD" d="M-50.447-311.433L931.517-484.58c7.893-1.391 15.784 2.458 19.547 9.534l468.116 880.398c3.76 7.077 2.54 15.771-3.03 21.537L723.5 1144.15a18.5 18.5 0 0 1-21.417 3.78l-896.199-437.107a18.5 18.5 0 0 1-10.21-19.203l138.771-987.409a18.5 18.5 0 0 1 15.107-15.644z"/><path id="AE" d="M-49.067-317.279l982.793-155.659a18.5 18.5 0 0 1 19.378 9.873l451.736 886.591c3.64 7.141 2.27 15.813-3.4 21.48l-703.6 703.604c-5.668 5.67-14.339 7.04-21.481 3.4l-886.59-451.74a18.5 18.5 0 0 1-9.874-19.377l155.659-982.794a18.5 18.5 0 0 1 15.378-15.378z"/><path id="AF" d="M-47.549-322.898l983.311-138.195a18.5 18.5 0 0 1 19.202 10.21l435.296 892.48c3.51 7.204 1.98 15.85-3.78 21.418L672.193 1152.79a18.5 18.5 0 0 1-21.536 3.03l-876.745-466.174a18.5 18.5 0 0 1-9.534-19.547L-63.194-307.79a18.5 18.5 0 0 1 15.644-15.108z"/><path id="AG" d="M-45.894-328.278l983.52-120.761a18.5 18.5 0 0 1 19.021 10.544l418.773 898.066a18.5 18.5 0 0 1-4.15 21.348l-724.7 675.801a18.52 18.52 0 0 1-21.586 2.65l-866.666-480.405a18.5 18.5 0 0 1-9.191-19.71l189.074-972.701a18.5 18.5 0 0 1 15.906-14.832z"/><path id="AH" d="M-44.11-333.429l983.42-103.362c7.971-.837 15.575 3.553 18.835 10.874l402.195 903.348c3.26 7.322 1.44 15.91-4.52 21.273L620.97 1160.36c-5.956 5.37-14.688 6.29-21.629 2.28l-856.358-494.42a18.5 18.5 0 0 1-8.845-19.868l205.59-967.229a18.5 18.5 0 0 1 16.162-14.552z"/><path id="AI" d="M-42.195-338.338l983.013-86.002a18.5 18.5 0 0 1 18.642 11.201l385.56 908.325a18.5 18.5 0 0 1-4.89 21.19L595.405 1163.75c-6.049 5.26-14.795 6.03-21.665 1.9l-845.826-508.223a18.5 18.5 0 0 1-8.497-20.02L-58.609-324.07a18.5 18.5 0 0 1 16.414-14.268z"/><path id="AJ" d="M-40.162-343.009l982.3-68.689a18.5 18.5 0 0 1 18.444 11.525l368.878 912.997a18.52 18.52 0 0 1-5.26 21.102L569.872 1166.88c-6.14 5.15-14.898 5.76-21.695 1.52l-835.072-521.816a18.5 18.5 0 0 1-8.147-20.164l238.22-955.449a18.5 18.5 0 0 1 16.66-13.98z"/><path id="AK" d="M-38.011-347.441l981.283-51.427c8.004-.419 15.368 4.363 18.24 11.845l352.148 917.365a18.52 18.52 0 0 1-5.63 21.007L544.379 1169.74c-6.229 5.04-14.997 5.5-21.718 1.14l-824.103-535.183a18.5 18.5 0 0 1-7.794-20.303l254.323-949.148a18.5 18.5 0 0 1 16.901-13.687z"/><path id="AL" d="M-35.748-351.631l979.964-34.221a18.5 18.5 0 0 1 18.03 12.161l335.374 921.426a18.5 18.5 0 0 1-6 20.906L518.93 1172.34c-6.316 4.93-15.09 5.24-21.735.75l-812.922-548.319a18.5 18.5 0 0 1-7.438-20.437l270.279-942.576a18.5 18.5 0 0 1 17.138-13.389z"/><path id="AM" d="M-33.377-355.574l978.344-17.077a18.5 18.5 0 0 1 17.815 12.474l318.568 925.183c2.61 7.578.04 15.974-6.36 20.798L493.53 1174.68a18.5 18.5 0 0 1-21.744.37l-801.535-561.235c-6.565-4.597-9.423-12.899-7.08-20.564l286.083-935.737a18.5 18.5 0 0 1 17.369-13.088z"/><path id="AN" d="M-30.9-359.273h976.424a18.5 18.5 0 0 1 17.594 12.783l301.732 928.634c2.48 7.622-.24 15.973-6.72 20.684L468.186 1176.76c-6.484 4.71-15.264 4.71-21.748 0l-789.943-573.932a18.5 18.5 0 0 1-6.721-20.684L-48.494-346.49A18.5 18.5 0 0 1-30.9-359.273z"/><path id="AO" d="M-28.327-362.727l974.207 17.005c8.013.14 15.025 5.424 17.369 13.088l284.871 931.78c2.35 7.665-.51 15.966-7.08 20.563L442.897 1178.58a18.52 18.52 0 0 1-21.745-.38l-778.154-586.385a18.5 18.5 0 0 1-6.358-20.797l317.219-921.271a18.5 18.5 0 0 1 17.815-12.474z"/><path id="AP" d="M-25.656-365.932L946.038-332a18.5 18.5 0 0 1 17.137 13.39l267.995 934.621c2.21 7.704-.79 15.955-7.43 20.437L417.674 1180.14c-6.645 4.48-15.419 4.18-21.735-.76l-766.172-598.595c-6.315-4.934-8.735-13.374-5.994-20.906l332.541-913.65a18.5 18.5 0 0 1 18.03-12.161z"/><path id="AQ" d="M-22.897-368.891l968.887 50.777a18.5 18.5 0 0 1 16.902 13.686L1214 632.73c2.08 7.741-1.07 15.938-7.79 20.303L392.516 1181.45c-6.722 4.37-15.49 3.91-21.718-1.14l-754-610.574a18.5 18.5 0 0 1-5.629-21.007l347.695-905.776a18.5 18.5 0 0 1 18.239-11.844z"/><path id="AR" d="M-20.054-371.598l965.789 67.534a18.5 18.5 0 0 1 16.66 13.98l234.215 939.389c1.94 7.777-1.35 15.918-8.15 20.165l-821.032 513.04a18.5 18.5 0 0 1-21.695-1.52l-741.644-622.31a18.5 18.5 0 0 1-5.261-21.102l362.674-897.652a18.5 18.5 0 0 1 18.443-11.524z"/><path id="AS" d="M-17.131-374.057l962.403 84.199a18.5 18.5 0 0 1 16.413 14.268l217.325 941.319c1.8 7.809-1.63 15.891-8.5 20.019L342.417 1183.32a18.51 18.51 0 0 1-21.665-1.9l-729.109-633.805a18.5 18.5 0 0 1-4.893-21.191l377.478-889.28c3.132-7.377 10.657-11.899 18.642-11.201z"/><path id="AT" d="M-14.131-376.263l958.73 100.767a18.5 18.5 0 0 1 16.161 14.552L1161.19 682a18.5 18.5 0 0 1-8.85 19.868L317.486 1183.87a18.5 18.5 0 0 1-21.628-2.27l-716.4-645.049a18.5 18.5 0 0 1-4.521-21.273l392.098-880.667a18.5 18.5 0 0 1 18.834-10.874z"/><path id="AU" d="M-11.057-378.211L943.714-260.98a18.5 18.5 0 0 1 15.905 14.832L1143.17 698.12a18.5 18.5 0 0 1-9.19 19.71l-841.338 466.36a18.52 18.52 0 0 1-21.585-2.65l-703.52-656.044a18.5 18.5 0 0 1-4.15-21.348l406.534-871.815a18.5 18.5 0 0 1 19.021-10.544z"/><path id="AV" d="M-7.92-379.914l950.531 133.589a18.5 18.5 0 0 1 15.644 15.107l166.685 945.29c1.39 7.893-2.46 15.784-9.54 19.547L267.884 1184.25c-7.076 3.76-15.771 2.54-21.536-3.02l-690.475-666.788a18.5 18.5 0 0 1-3.776-21.418l420.78-862.728c3.513-7.203 11.266-11.325 19.202-10.21z"/><path id="AW" d="M-4.721-381.357l946.012 149.833c7.916 1.254 14.124 7.463 15.378 15.379L1106.5 729.866c1.26 7.916-2.73 15.739-9.87 19.378L243.22 1184.08a18.51 18.51 0 0 1-21.48-3.4l-677.27-677.274a18.5 18.5 0 0 1-3.402-21.48l434.834-853.41a18.5 18.5 0 0 1 19.378-9.873z"/><path id="AX" d="M-1.466-382.546l941.215 165.961a18.5 18.5 0 0 1 15.107 15.644l133.014 946.434c1.11 7.937-3.01 15.689-10.21 19.202L218.65 1183.66c-7.203 3.52-15.85 1.99-21.417-3.77l-663.91-687.503a18.5 18.5 0 0 1-3.026-21.536l448.69-843.864a18.5 18.5 0 0 1 19.547-9.533z"/><path id="AY" d="M1.843-383.479l936.144 181.968a18.5 18.5 0 0 1 14.833 15.906l116.22 946.557a18.5 18.5 0 0 1-10.54 19.022L194.184 1183.01a18.5 18.5 0 0 1-21.349-4.15l-650.398-697.467a18.5 18.5 0 0 1-2.651-21.586l462.347-834.095c3.886-7.009 11.843-10.72 19.71-9.191z"/><path id="AZ" d="M5.201-384.161l930.802 197.848a18.5 18.5 0 0 1 14.552 16.162l99.465 946.384a18.5 18.5 0 0 1-10.87 18.834L169.823 1182.12c-7.322 3.26-15.91 1.43-21.273-4.53l-636.742-707.169a18.5 18.5 0 0 1-2.274-21.629l475.799-824.107a18.5 18.5 0 0 1 19.868-8.846z"/><path id="Aa" d="M8.601-384.587L933.792-170.99a18.5 18.5 0 0 1 14.268 16.414l82.76 945.915c.7 7.984-3.83 15.51-11.2 18.641l-874.049 371.01a18.5 18.5 0 0 1-21.191-4.89l-622.946-716.62a18.5 18.5 0 0 1-1.896-21.665l489.044-813.904a18.5 18.5 0 0 1 20.019-8.498z"/><path id="Ab" d="M12.038-384.752l919.315 229.211a18.5 18.5 0 0 1 13.98 16.66l66.087 945.151c.56 7.996-4.09 15.441-11.521 18.444L121.43 1179.64c-7.431 3-15.95.88-21.102-5.26l-609.015-725.799a18.5 18.5 0 0 1-1.517-21.695L-8.127-376.605a18.5 18.5 0 0 1 20.164-8.147z"/><path id="Ac" d="M15.509-384.661l913.177 244.685c7.742 2.075 13.267 8.898 13.687 16.902l49.478 944.094c.419 8.004-4.363 15.368-11.845 18.24l-882.598 338.8c-7.482 2.87-15.963.6-21.007-5.63l-594.953-734.708a18.5 18.5 0 0 1-1.139-21.718L-4.794-376.867c4.365-6.721 12.562-9.868 20.304-7.794z"/><path id="Ad" d="M19.008-384.318l906.779 260.014a18.5 18.5 0 0 1 13.389 17.138l32.922 942.747a18.5 18.5 0 0 1-12.162 18.03L73.505 1176.25a18.5 18.5 0 0 1-20.906-6l-580.767-743.346c-4.934-6.316-5.24-15.091-.759-21.735L-1.428-376.88a18.5 18.5 0 0 1 20.436-7.438z"/><path id="Ae" d="M22.535-383.717l900.124 275.195a18.5 18.5 0 0 1 13.089 17.369l16.427 941.109a18.5 18.5 0 0 1-12.474 17.815L49.729 1174.21c-7.578 2.61-15.974.05-20.798-6.36l-566.46-751.713a18.5 18.5 0 0 1-.379-21.745L1.972-376.637a18.5 18.5 0 0 1 20.563-7.08z"/><path id="Af" d="M26.078-382.863L919.295-92.639a18.5 18.5 0 0 1 12.783 17.595v939.184a18.5 18.5 0 0 1-12.783 17.594L26.078 1171.96c-7.622 2.47-15.973-.24-20.684-6.72l-552.039-759.819c-4.71-6.484-4.71-15.264 0-21.748L5.395-376.143a18.5 18.5 0 0 1 20.684-6.72z"/><path id="Ag" d="M29.638-381.748L915.697-76.653a18.5 18.5 0 0 1 12.474 17.815l-16.354 936.972c-.14 8.013-5.424 15.025-13.089 17.369L2.561 1169.49c-7.664 2.34-15.966-.52-20.563-7.08l-537.507-767.642a18.5 18.5 0 0 1 .38-21.744L8.84-375.389a18.5 18.5 0 0 1 20.798-6.359z"/><path id="Ah" d="M33.207-380.384L911.863-60.58a18.5 18.5 0 0 1 12.161 18.03l-32.632 934.477a18.5 18.5 0 0 1-13.39 17.137L-20.821 1166.8c-7.704 2.21-15.955-.8-20.436-7.44l-522.871-775.189a18.5 18.5 0 0 1 .759-21.734L12.302-374.389a18.5 18.5 0 0 1 20.906-5.995z"/><path id="Ai" d="M36.783-378.759L907.792-44.41a18.5 18.5 0 0 1 11.845 18.239l-48.828 931.699a18.5 18.5 0 0 1-13.687 16.901L-44.064 1163.9c-7.742 2.08-15.938-1.07-20.303-7.79l-508.136-782.463a18.5 18.5 0 0 1 1.139-21.718L15.776-373.13a18.5 18.5 0 0 1 21.007-5.629z"/><path id="Aj" d="M40.362-376.884L903.484-28.16a18.5 18.5 0 0 1 11.525 18.443l-64.937 928.64a18.5 18.5 0 0 1-13.979 16.66L-67.163 1160.79c-7.777 1.94-15.917-1.35-20.164-8.15l-493.306-789.451c-4.247-6.796-3.634-15.555 1.517-21.695L19.259-371.623c5.152-6.139 13.671-8.263 21.102-5.261z"/><path id="Ak" d="M43.933-374.754L898.933-11.828a18.5 18.5 0 0 1 11.201 18.642l-80.953 925.304a18.5 18.5 0 0 1-14.268 16.414L-90.12 1157.48c-7.809 1.8-15.891-1.63-20.019-8.5l-478.388-796.173a18.5 18.5 0 0 1 1.896-21.665L22.742-369.862c5.258-6.048 13.813-8.023 21.191-4.892z"/><path id="Al" d="M47.5-372.366L894.147 4.585a18.5 18.5 0 0 1 10.874 18.834l-96.874 921.693a18.5 18.5 0 0 1-14.552 16.162l-906.518 192.686c-7.84 1.67-15.86-1.9-19.868-8.85l-463.385-802.602c-4.007-6.941-3.089-15.672 2.273-21.629L26.228-367.845a18.5 18.5 0 0 1 21.273-4.521z"/><path id="Am" d="M51.053-369.728L889.117 21.067a18.5 18.5 0 0 1 10.544 19.021L786.968 957.897c-.977 7.955-6.965 14.376-14.832 15.906l-907.712 176.437a18.5 18.5 0 0 1-19.71-9.19l-448.305-808.759a18.5 18.5 0 0 1 2.651-21.586L29.705-365.579a18.5 18.5 0 0 1 21.348-4.149z"/><path id="An" d="M54.589-366.838L883.846 37.618c7.203 3.513 11.325 11.266 10.21 19.202L765.65 970.473a18.5 18.5 0 0 1-15.107 15.645l-908.616 160.212a18.51 18.51 0 0 1-19.547-9.53l-433.149-814.639a18.5 18.5 0 0 1 3.026-21.536L33.172-363.061a18.5 18.5 0 0 1 21.418-3.777z"/><path id="Ao" d="M58.104-363.693L878.332 54.234a18.5 18.5 0 0 1 9.874 19.378l-144.008 909.23a18.5 18.5 0 0 1-15.378 15.378l-909.23 144.01a18.5 18.5 0 0 1-19.378-9.88l-417.927-820.224a18.5 18.5 0 0 1 3.402-21.48L36.624-360.291a18.5 18.5 0 0 1 21.48-3.402z"/><path id="Ap" d="M61.594-360.305L872.576 70.902a18.5 18.5 0 0 1 9.534 19.547L722.615 994.99a18.51 18.51 0 0 1-15.644 15.11l-909.556 127.83c-7.937 1.11-15.689-3.01-19.202-10.21l-402.642-825.541a18.5 18.5 0 0 1 3.777-21.417l660.709-638.04a18.5 18.5 0 0 1 21.536-3.027z"/><path id="Aq" d="M65.051-356.663L866.575 87.629c7.009 3.886 10.72 11.843 9.191 19.711l-174.863 899.59a18.5 18.5 0 0 1-15.905 14.83l-909.595 111.68a18.5 18.5 0 0 1-19.021-10.54l-387.298-830.563a18.5 18.5 0 0 1 4.15-21.349l670.231-625a18.5 18.5 0 0 1 21.586-2.651z"/><path id="Ar" d="M68.476-352.776l791.857 457.179a18.5 18.5 0 0 1 8.845 19.868L679.072 1018.65a18.5 18.5 0 0 1-16.162 14.55l-909.348 95.57c-7.971.84-15.574-3.55-18.834-10.87l-371.902-835.305a18.5 18.5 0 0 1 4.521-21.273l679.5-611.824a18.5 18.5 0 0 1 21.629-2.274z"/><path id="As" d="M71.859-348.634l781.984 469.863a18.5 18.5 0 0 1 8.497 20.019L657.12 1030.15c-1.803 7.81-8.429 13.57-16.413 14.27l-908.816 79.51c-7.985.7-15.511-3.82-18.642-11.2L-643.21 272.967a18.5 18.5 0 0 1 4.892-21.191L50.194-346.738a18.5 18.5 0 0 1 21.665-1.896z"/><path id="At" d="M75.202-344.256l771.91 482.343a18.5 18.5 0 0 1 8.147 20.164L635.057 1041.43a18.5 18.5 0 0 1-16.66 13.98l-908.002 63.5a18.52 18.52 0 0 1-18.443-11.53l-340.974-843.94a18.5 18.5 0 0 1 5.261-21.102L53.507-342.739a18.5 18.5 0 0 1 21.695-1.517z"/><path id="Au" d="M78.494-339.627l761.638 494.614a18.5 18.5 0 0 1 7.794 20.303L612.88 1052.5a18.5 18.5 0 0 1-16.902 13.68l-906.905 47.53a18.5 18.5 0 0 1-18.24-11.84l-325.452-847.835c-2.872-7.482-.599-15.963 5.629-21.007L56.775-338.489a18.5 18.5 0 0 1 21.718-1.138z"/><path id="Av" d="M81.734-334.764L832.909 171.91a18.5 18.5 0 0 1 7.438 20.437l-249.75 870.983c-2.209 7.7-9.127 13.11-17.137 13.39l-905.529 31.62a18.5 18.5 0 0 1-18.03-12.16l-309.898-851.44a18.5 18.5 0 0 1 5.994-20.906L59.999-334.005a18.5 18.5 0 0 1 21.735-.759z"/><path id="Aw" d="M84.92-329.651l740.524 518.52c6.565 4.597 9.423 12.899 7.08 20.564L568.216 1073.94c-2.343 7.67-9.355 12.95-17.368 13.09l-903.875 15.78c-8.013.14-15.205-4.9-17.815-12.48l-294.317-854.755a18.5 18.5 0 0 1 6.358-20.798L63.175-329.271a18.5 18.5 0 0 1 21.745-.38z"/><path id="Ax" d="M88.045-324.301l729.688 530.149a18.5 18.5 0 0 1 6.72 20.684L545.738 1084.33a18.5 18.5 0 0 1-17.595 12.78H-373.8a18.5 18.5 0 0 1-17.595-12.78l-278.716-857.798c-2.476-7.623.237-15.973 6.721-20.684L66.297-324.301a18.5 18.5 0 0 1 21.748 0z"/></defs></svg>