<svg width="1440" height="427" viewBox="0 0 1440 427" fill="none" xmlns="http://www.w3.org/2000/svg">
<rect width="1440" height="427" fill="#111318"/>
<mask id="mask0_2_3" style="mask-type:alpha" maskUnits="userSpaceOnUse" x="0" y="0" width="1440" height="427">
<rect width="1440" height="427" fill="#111318"/>
</mask>
<g mask="url(#mask0_2_3)">
<g opacity="0.2">
<path opacity="0.010101" d="M829.254 -118.047L1778.31 910.533C1786.47 919.383 1786.81 933.255 1779.05 940.562L1122.54 1558.15C1117.67 1562.73 1110.6 1563.68 1104.13 1560.62L-265.085 913.606C-271.558 910.547 -276.396 903.973 -277.687 896.48L-451.729 -113.58C-453.788 -125.532 -446.317 -135.712 -435.556 -135.618L815.154 -124.71C820.266 -124.665 825.375 -122.251 829.254 -118.047Z" stroke="white" stroke-opacity="0.3"/>
<path opacity="0.020202" d="M849.319 -116.548L1778.9 915.554C1786.93 924.473 1786.91 938.329 1778.84 945.498L1102.89 1546.6C1097.86 1551.07 1090.73 1551.91 1084.31 1548.79L-277.746 887.843C-284.172 884.724 -288.867 878.145 -289.983 870.693L-440.015 -131.222C-441.805 -143.172 -433.98 -153.243 -423.105 -152.987L835.355 -123.324C840.479 -123.203 845.534 -120.75 849.319 -116.548Z" stroke="white" stroke-opacity="0.3"/>
<path opacity="0.030303" d="M869.235 -114.859L1779.13 920.433C1787.02 929.415 1786.63 943.237 1778.28 950.259L1083.16 1534.76C1077.97 1539.12 1070.78 1539.85 1064.4 1536.68L-290.086 862.054C-296.467 858.876 -301.02 852.292 -301.96 844.884L-428.037 -148.627C-429.552 -160.562 -421.376 -170.508 -410.393 -170.088L855.4 -121.75C860.537 -121.553 865.542 -119.061 869.235 -114.859Z" stroke="white" stroke-opacity="0.3"/>
<path opacity="0.040404" d="M889.003 -112.982L1779 925.168C1786.75 934.209 1785.99 947.978 1777.35 954.843L1063.35 1522.65C1058.01 1526.89 1050.76 1527.52 1044.42 1524.28L-302.095 836.248C-308.431 833.01 -312.844 826.423 -313.607 819.062L-415.791 -165.79C-417.026 -177.697 -408.501 -187.501 -397.418 -186.918L875.289 -119.989C880.442 -119.718 885.4 -117.185 889.003 -112.982Z" stroke="white" stroke-opacity="0.3"/>
<path opacity="0.050505" d="M908.611 -110.921L1778.52 929.757C1786.12 938.85 1784.98 952.548 1776.08 959.248L1043.47 1510.25C1037.98 1514.38 1030.66 1514.9 1024.37 1511.6L-313.777 810.43C-320.07 807.132 -324.344 800.543 -324.931 793.231L-403.286 -182.71C-404.239 -194.577 -395.371 -204.222 -384.193 -203.475L895.01 -118.048C900.18 -117.703 905.095 -115.127 908.611 -110.921Z" stroke="white" stroke-opacity="0.3"/>
<path opacity="0.0606061" d="M928.061 -108.679L1777.68 934.196C1785.13 943.337 1783.63 956.945 1774.45 963.471L1023.52 1497.59C1017.89 1501.6 1010.5 1502 1004.25 1498.64L-325.121 784.607C-331.373 781.249 -335.509 774.658 -335.919 767.398L-390.519 -199.387C-391.186 -211.199 -381.981 -220.669 -370.716 -219.759L914.565 -115.929C919.755 -115.509 924.631 -112.89 928.061 -108.679Z" stroke="white" stroke-opacity="0.3"/>
<path opacity="0.0707071" d="M947.344 -106.259L1776.5 938.485C1783.78 947.666 1781.92 961.167 1772.48 967.511L1003.53 1484.65C997.741 1488.54 990.295 1488.84 984.082 1485.42L-336.128 758.787C-342.341 755.367 -346.341 748.775 -346.573 741.571L-377.496 -215.816C-377.875 -227.56 -368.339 -236.839 -356.994 -235.765L933.945 -113.634C939.157 -113.141 943.997 -110.477 947.344 -106.259Z" stroke="white" stroke-opacity="0.3"/>
<path opacity="0.0808081" d="M966.446 -103.675L1774.95 942.608C1782.07 951.825 1779.85 965.201 1770.16 971.355L983.471 1471.44C977.539 1475.21 970.028 1475.39 963.854 1471.91L-346.805 732.964C-352.979 729.483 -356.844 722.889 -356.899 715.743L-364.229 -232.006C-364.319 -243.668 -354.461 -252.741 -343.042 -251.504L953.136 -111.179C958.373 -110.612 963.179 -107.902 966.446 -103.675Z" stroke="white" stroke-opacity="0.3"/>
<path opacity="0.0909091" d="M985.376 -100.917L1773.06 946.578C1780.01 955.825 1777.43 969.057 1767.52 975.014L963.379 1457.96C957.304 1461.61 949.727 1461.67 943.589 1458.13L-357.134 707.157C-363.271 703.614 -367.003 697.02 -366.881 689.934L-350.706 -247.942C-350.506 -259.51 -340.337 -268.361 -328.852 -266.962L972.148 -108.555C977.412 -107.914 982.189 -105.156 985.376 -100.917Z" stroke="white" stroke-opacity="0.3"/>
<path opacity="0.10101" d="M1004.12 -98.0029L1770.82 950.376C1777.6 959.647 1774.67 972.721 1764.53 978.474L943.249 1444.21C937.032 1447.73 929.39 1447.68 923.288 1444.08L-367.121 681.36C-373.223 677.754 -376.823 671.159 -376.523 664.136L-336.939 -263.634C-336.45 -275.095 -325.979 -283.71 -314.436 -282.151L990.966 -105.778C996.261 -105.062 1001.01 -102.255 1004.12 -98.0029Z" stroke="white" stroke-opacity="0.3"/>
<path opacity="0.111111" d="M1022.67 -94.9291L1768.23 954.009C1774.83 963.298 1771.56 976.196 1761.2 981.739L923.08 1430.2C916.724 1433.6 909.015 1433.43 902.947 1429.76L-376.773 655.585C-382.84 651.915 -386.31 645.32 -385.833 638.363L-322.939 -279.075C-322.161 -290.415 -311.402 -298.781 -299.807 -297.062L1009.58 -102.846C1014.91 -102.056 1019.63 -99.1966 1022.67 -94.9291Z" stroke="white" stroke-opacity="0.3"/>
<path opacity="0.121212" d="M1041.03 -91.7007L1765.3 957.471C1771.72 966.772 1768.12 979.479 1757.56 984.807L902.897 1415.92C896.405 1419.2 888.629 1418.91 882.594 1415.18L-386.068 629.837C-392.102 626.102 -395.442 619.507 -394.789 612.618L-308.69 -294.262C-307.626 -305.47 -296.592 -313.574 -284.953 -311.696L1028 -99.7645C1033.36 -98.8989 1038.07 -95.9859 1041.03 -91.7007Z" stroke="white" stroke-opacity="0.3"/>
<path opacity="0.131313" d="M1059.17 -88.3291L1762.02 960.753C1768.26 970.059 1764.34 982.562 1753.58 987.67L882.685 1401.38C876.06 1404.53 868.217 1404.13 862.214 1400.32L-395.026 604.115C-401.029 600.314 -404.241 593.719 -403.411 586.901L-294.219 -309.201C-292.871 -320.265 -281.575 -328.096 -269.899 -326.059L1046.2 -96.5448C1051.6 -95.603 1056.29 -92.6339 1059.17 -88.3291Z" stroke="white" stroke-opacity="0.3"/>
<path opacity="0.141414" d="M1077.12 -84.8094L1758.4 963.859C1764.45 973.166 1760.22 985.45 1749.29 990.334L862.467 1386.59C855.71 1389.61 847.8 1389.08 841.828 1385.21L-403.631 578.433C-409.603 574.564 -412.689 567.969 -411.682 561.225L-279.513 -323.88C-277.884 -334.789 -266.342 -342.335 -254.637 -340.143L1064.19 -93.1825C1069.63 -92.1635 1074.31 -89.1361 1077.12 -84.8094Z" stroke="white" stroke-opacity="0.3"/>
<path opacity="0.151515" d="M1094.85 -81.1531L1754.44 966.781C1760.29 976.082 1755.77 988.136 1744.67 992.792L842.241 1371.54C835.355 1374.43 827.378 1373.78 821.435 1369.84L-411.889 552.789C-417.831 548.852 -420.791 542.257 -419.608 535.589L-264.584 -338.304C-262.678 -349.047 -250.905 -356.299 -239.179 -353.953L1081.97 -89.689C1087.45 -88.5919 1092.11 -85.5037 1094.85 -81.1531Z" stroke="white" stroke-opacity="0.3"/>
<path opacity="0.161616" d="M1112.36 -77.362L1750.14 969.517C1755.8 978.806 1750.99 990.618 1739.74 995.044L822.017 1356.24C815.006 1359 806.961 1358.22 801.047 1354.22L-419.794 527.191C-425.708 523.185 -428.543 516.59 -427.185 510.001L-249.432 -352.468C-247.254 -363.035 -235.267 -369.985 -223.527 -367.488L1099.52 -86.0667C1105.05 -84.8902 1109.7 -81.7386 1112.36 -77.362Z" stroke="white" stroke-opacity="0.3"/>
<path opacity="0.171717" d="M1129.65 -73.4448L1745.49 972.059C1750.96 981.332 1745.88 992.892 1734.5 997.084L801.797 1340.68C794.663 1343.31 786.551 1342.41 780.665 1338.33L-427.352 501.641C-433.237 497.564 -435.95 490.969 -434.417 484.461L-234.066 -366.376C-231.622 -376.757 -219.438 -383.397 -207.69 -380.75L1116.83 -82.3243C1122.41 -81.067 1127.06 -77.8495 1129.65 -73.4448Z" stroke="white" stroke-opacity="0.3"/>
<path opacity="0.181818" d="M1146.72 -69.3966L1740.52 974.415C1745.78 983.665 1740.45 994.964 1728.94 998.922L781.596 1324.89C774.341 1327.38 766.162 1326.35 760.304 1322.21L-434.552 476.152C-440.41 472.004 -443 465.409 -441.294 458.984L-218.484 -380.014C-215.779 -390.2 -203.415 -396.525 -191.668 -393.731L1133.92 -78.457C1139.55 -77.1175 1144.2 -73.8314 1146.72 -69.3966Z" stroke="white" stroke-opacity="0.3"/>
<path opacity="0.191919" d="M1163.55 -65.2351L1735.22 976.567C1740.28 985.789 1734.69 996.82 1723.08 1000.54L761.412 1308.84C754.041 1311.2 745.795 1310.04 739.964 1305.82L-441.4 450.717C-447.231 446.496 -449.7 439.901 -447.82 433.562L-202.695 -393.393C-199.736 -403.377 -187.209 -409.382 -175.469 -406.443L1150.77 -74.4828C1156.46 -73.0595 1161.1 -69.7019 1163.55 -65.2351Z" stroke="white" stroke-opacity="0.3"/>
<path opacity="0.20202" d="M1180.14 -60.9529L1729.58 978.525C1734.44 987.713 1728.63 998.469 1716.92 1001.96L741.257 1292.56C733.772 1294.79 725.46 1293.5 719.655 1289.2L-447.892 425.353C-453.697 421.059 -456.044 414.463 -453.994 408.213L-186.701 -406.501C-183.494 -416.275 -170.823 -421.956 -159.098 -418.875L1167.38 -70.3944C1173.13 -68.8855 1177.77 -65.4535 1180.14 -60.9529Z" stroke="white" stroke-opacity="0.3"/>
<path opacity="0.212121" d="M1196.49 -56.5633L1723.61 980.277C1728.27 989.427 1722.24 999.902 1710.45 1003.15L721.131 1276.03C713.534 1278.13 705.157 1276.7 699.379 1272.33L-454.033 400.057C-459.812 395.687 -462.04 389.092 -459.819 382.932L-170.513 -419.343C-167.067 -428.901 -154.268 -434.255 -142.564 -431.036L1183.74 -66.2052C1189.55 -64.6089 1194.19 -61.0997 1196.49 -56.5633Z" stroke="white" stroke-opacity="0.3"/>
<path opacity="0.222222" d="M1212.6 -52.0674L1717.33 981.823C1721.77 990.928 1715.54 1001.12 1703.69 1004.14L701.046 1259.28C693.342 1261.24 684.901 1259.68 679.148 1255.23L-459.816 374.837C-465.569 370.391 -467.678 363.795 -465.287 357.728L-154.129 -431.915C-150.45 -441.249 -137.542 -446.276 -125.866 -442.921L1199.86 -61.9165C1205.72 -60.2309 1210.37 -56.6412 1212.6 -52.0674Z" stroke="white" stroke-opacity="0.3"/>
<path opacity="0.232323" d="M1228.45 -47.4764L1710.71 983.154C1714.95 992.21 1708.54 1002.11 1696.63 1004.9L681.006 1242.28C673.197 1244.1 664.693 1242.41 658.966 1237.88L-465.245 349.692C-470.972 345.167 -472.962 338.572 -470.403 332.599L-137.558 -444.22C-133.656 -453.326 -120.655 -458.026 -109.014 -454.537L1215.71 -57.5393C1221.64 -55.7624 1226.29 -52.0893 1228.45 -47.4764Z" stroke="white" stroke-opacity="0.3"/>
<path opacity="0.242424" d="M1244.05 -42.7864L1703.78 984.275C1707.81 993.278 1701.22 1002.89 1689.27 1005.44L661.014 1225.06C653.104 1226.75 644.537 1224.91 638.837 1220.31L-470.321 324.634C-476.021 320.031 -477.894 313.435 -475.168 307.56L-120.807 -456.248C-116.69 -465.123 -103.614 -469.495 -92.0141 -465.877L1231.31 -53.0702C1237.31 -51.1997 1241.96 -47.44 1244.05 -42.7864Z" stroke="white" stroke-opacity="0.3"/>
<path opacity="0.252525" d="M1259.38 -38.0062L1696.52 985.179C1700.35 994.124 1693.6 1003.45 1681.63 1005.77L641.082 1207.61C633.074 1209.16 624.447 1207.19 618.773 1202.51L-475.038 299.665C-480.712 294.982 -482.467 288.386 -479.575 282.61L-103.877 -468.003C-99.5532 -476.641 -86.4195 -480.689 -74.8665 -476.943L1246.65 -48.5178C1252.71 -46.5517 1257.38 -42.702 1259.38 -38.0062Z" stroke="white" stroke-opacity="0.3"/>
<path opacity="0.262626" d="M1274.46 -33.1412L1688.96 985.864C1692.58 994.747 1685.69 1003.78 1673.69 1005.87L621.217 1189.94C613.115 1191.36 604.428 1189.24 598.781 1184.48L-479.396 274.79C-485.044 270.025 -486.682 263.429 -483.627 257.754L-86.7734 -479.483C-82.252 -487.882 -69.0765 -491.608 -57.5765 -487.739L1261.72 -43.8876C1267.86 -41.8233 1272.53 -37.8804 1274.46 -33.1412Z" stroke="white" stroke-opacity="0.3"/>
<path opacity="0.272727" d="M1289.26 -28.1974L1681.08 986.325C1684.49 995.141 1677.47 1003.88 1665.47 1005.75L601.415 1172.05C593.222 1173.33 584.478 1171.07 578.858 1166.22L-483.406 250.01C-489.026 245.163 -490.547 238.567 -487.33 232.995L-69.5114 -490.688C-64.8015 -498.846 -51.5999 -502.253 -40.1589 -498.264L1276.52 -39.1856C1282.73 -37.0208 1287.41 -32.9814 1289.26 -28.1974Z" stroke="white" stroke-opacity="0.3"/>
<path opacity="0.282828" d="M1303.79 -23.1779L1672.9 986.562C1676.1 995.306 1668.95 1003.75 1656.97 1005.41L581.692 1153.94C573.412 1155.09 564.612 1152.68 559.021 1147.75L-487.056 225.334C-492.648 220.403 -494.053 213.807 -490.676 208.34L-52.0864 -501.616C-47.1972 -509.531 -33.9848 -512.624 -22.6083 -508.519L1291.04 -34.415C1297.33 -32.1472 1302.02 -28.0077 1303.79 -23.1779Z" stroke="white" stroke-opacity="0.3"/>
<path opacity="0.292929" d="M1318.04 -18.0909L1664.4 986.567C1667.39 995.237 1660.15 1003.4 1648.18 1004.84L562.046 1135.62C553.682 1136.63 544.828 1134.08 539.265 1129.06L-490.358 200.762C-495.921 195.746 -497.209 189.15 -493.674 183.79L-34.5146 -512.27C-29.4552 -519.94 -16.2468 -522.725 -4.94019 -518.505L1305.29 -29.5839C1311.65 -27.2106 1316.36 -22.9677 1318.04 -18.0909Z" stroke="white" stroke-opacity="0.3"/>
<path opacity="0.30303" d="M1332.01 -12.9346L1655.62 986.346C1658.4 994.938 1651.06 1002.81 1639.12 1004.04L542.494 1117.1C534.05 1117.97 525.145 1115.27 519.612 1110.17L-493.297 176.305C-498.83 171.204 -500.003 164.608 -496.31 159.357L-16.7891 -522.641C-11.5686 -530.066 1.6218 -532.548 12.8532 -528.219L1319.26 -24.6906C1325.7 -22.2091 1330.42 -17.8591 1332.01 -12.9346Z" stroke="white" stroke-opacity="0.3"/>
<path opacity="0.313131" d="M1345.69 -7.72642L1646.52 985.884C1649.1 994.393 1641.67 1001.99 1629.77 1003.01L523.025 1098.36C514.505 1099.09 505.55 1096.24 500.048 1091.06L-495.894 151.955C-501.396 146.768 -502.453 140.172 -498.606 135.031L1.06495 -532.742C6.43729 -539.922 19.5963 -542.107 30.7476 -537.672L1332.94 -19.7523C1339.46 -17.1601 1344.19 -12.6996 1345.69 -7.72642Z" stroke="white" stroke-opacity="0.3"/>
<path opacity="0.323232" d="M1359.1 -2.45751L1637.14 985.192C1639.51 993.615 1632.01 1000.93 1620.16 1001.75L503.667 1079.42C495.074 1080.02 486.073 1077.02 480.604 1071.75L-498.126 127.731C-503.595 122.456 -504.536 115.86 -500.537 110.831L19.0647 -542.559C24.5798 -549.494 37.6947 -551.39 48.761 -546.852L1346.34 -14.7604C1352.94 -12.0546 1357.68 -7.47991 1359.1 -2.45751Z" stroke="white" stroke-opacity="0.3"/>
<path opacity="0.333333" d="M1372.2 2.85983L1627.47 984.26C1629.63 992.594 1622.07 999.634 1610.28 1000.26L484.409 1060.28C475.746 1060.75 466.701 1057.6 461.266 1052.24L-500.012 103.629C-505.447 98.2653 -506.272 91.6701 -502.123 86.7548L37.185 -552.1C42.8339 -558.791 55.8926 -560.405 66.8694 -555.768L1359.45 -9.72696C1366.13 -6.90485 1370.88 -2.21235 1372.2 2.85983Z" stroke="white" stroke-opacity="0.3"/>
<path opacity="0.343434" d="M1385.01 8.22081L1617.51 983.087C1619.47 991.33 1611.86 998.1 1600.13 998.538L465.259 1040.95C456.531 1041.28 447.445 1037.98 442.045 1032.53L-501.549 79.6542C-506.949 74.201 -507.658 67.6064 -503.361 62.806L55.4235 -561.364C61.1973 -567.813 74.1885 -569.152 85.0714 -564.42L1372.26 -4.65675C1379.02 -1.71555 1383.79 3.09849 1385.01 8.22081Z" stroke="white" stroke-opacity="0.3"/>
<path opacity="0.353535" d="M1397.52 13.6197L1607.26 981.67C1609.03 989.817 1601.37 996.322 1589.72 996.576L446.227 1021.43C437.437 1021.62 428.312 1018.17 422.949 1012.63L-502.735 55.8094C-508.098 50.266 -508.691 43.6721 -504.247 38.9881L73.7759 -570.352C79.666 -576.561 92.579 -577.633 103.364 -572.809L1384.78 0.444565C1391.62 3.50775 1396.4 8.447 1397.52 13.6197Z" stroke="white" stroke-opacity="0.3"/>
<path opacity="0.363636" d="M1409.73 19.0543L1596.74 980.009C1598.31 988.059 1590.62 994.305 1579.05 994.378L427.319 1001.72C418.471 1001.78 409.31 998.172 403.986 992.538L-503.57 32.1019C-508.894 26.4675 -509.371 19.8743 -504.784 15.3079L92.2364 -579.063C98.2341 -585.034 111.059 -585.847 121.742 -580.934L1397 5.57486C1403.93 8.76276 1408.72 13.8311 1409.73 19.0543Z" stroke="white" stroke-opacity="0.3"/>
<path opacity="0.373737" d="M1421.63 24.5147L1585.94 978.098C1587.31 986.048 1579.6 992.04 1568.11 991.939L408.533 981.826C399.63 981.749 390.437 977.988 385.154 972.262L-504.064 8.53075C-509.348 2.80467 -509.708 -3.78773 -504.98 -8.23524L110.791 -587.501C116.888 -593.237 129.616 -593.8 140.192 -588.802L1408.91 10.7244C1415.93 14.0401 1420.72 19.241 1421.63 24.5147Z" stroke="white" stroke-opacity="0.3"/>
<path opacity="0.383838" d="M1433.23 30.0012L1574.88 975.941C1576.06 983.788 1568.32 989.531 1556.93 989.263L389.887 961.754C380.932 961.543 371.711 957.626 366.47 951.808L-504.206 -14.8951C-509.446 -20.7136 -509.689 -27.3049 -504.823 -31.6324L129.444 -595.663C135.633 -601.166 148.254 -601.487 158.721 -596.408L1420.53 15.8935C1427.63 19.3396 1432.44 24.6773 1433.23 30.0012Z" stroke="white" stroke-opacity="0.3"/>
<path opacity="0.393939" d="M1444.52 35.5063L1563.56 973.533C1564.54 981.275 1556.79 986.775 1545.5 986.344L371.378 941.506C362.376 941.162 353.129 937.088 347.933 931.177L-504.004 -38.1739C-509.2 -44.0855 -509.325 -50.6755 -504.322 -54.8822L148.183 -603.552C154.454 -608.826 166.962 -608.913 177.316 -603.757L1431.84 21.0747C1439.02 24.6542 1443.84 30.1324 1444.52 35.5063Z" stroke="white" stroke-opacity="0.3"/>
<path opacity="0.40404" d="M1455.49 41.0277L1551.97 970.876C1552.76 978.51 1545.01 983.773 1533.83 983.185L353.016 921.089C343.97 920.614 334.701 916.382 329.553 910.377L-503.457 -61.2991C-508.605 -67.3042 -508.612 -73.8928 -503.476 -77.9776L167.003 -611.166C173.35 -616.214 185.736 -616.077 195.974 -610.846L1442.84 26.2659C1450.11 29.9819 1454.93 35.6043 1455.49 41.0277Z" stroke="white" stroke-opacity="0.3"/>
<path opacity="0.414141" d="M1466.15 46.5538L1540.13 967.961C1540.73 975.486 1532.97 980.518 1521.91 979.779L334.8 900.502C325.713 899.895 316.426 895.504 311.328 889.405L-502.573 -84.2735C-507.671 -90.3728 -507.56 -96.9598 -502.292 -100.922L185.891 -618.514C192.306 -623.339 204.565 -622.986 214.682 -617.684L1453.53 31.4559C1460.89 35.3111 1465.71 41.0817 1466.15 46.5538Z" stroke="white" stroke-opacity="0.3"/>
<path opacity="0.424242" d="M1476.48 52.0801L1528.03 964.788C1528.45 972.202 1520.69 977.008 1509.74 976.124L316.734 879.748C307.61 879.01 298.309 874.461 293.263 868.267L-501.353 -107.093C-506.399 -113.287 -506.169 -119.872 -500.773 -123.71L204.839 -625.596C211.316 -630.202 223.44 -629.642 233.435 -624.273L1463.9 36.6401C1471.34 40.6374 1476.17 46.5601 1476.48 52.0801Z" stroke="white" stroke-opacity="0.3"/>
<path opacity="0.434343" d="M1486.5 57.6116L1515.69 961.366C1515.93 968.667 1508.18 973.253 1497.35 972.228L298.836 858.841C289.678 857.974 280.366 853.265 275.375 846.977L-499.79 -129.744C-504.781 -136.033 -504.431 -142.616 -498.908 -146.33L223.854 -632.404C230.384 -636.796 242.369 -636.036 252.238 -630.604L1473.97 41.8237C1481.49 45.9659 1486.32 52.0445 1486.5 57.6116Z" stroke="white" stroke-opacity="0.3"/>
<path opacity="0.444444" d="M1496.19 63.1298L1503.1 957.679C1503.16 964.865 1495.43 969.238 1484.73 968.079L281.096 837.773C271.908 836.778 262.589 831.909 257.656 825.525L-497.898 -152.237C-502.831 -158.621 -502.361 -165.202 -496.714 -168.791L242.912 -638.953C249.49 -643.135 261.33 -642.184 271.071 -636.692L1483.71 46.9885C1491.32 51.2783 1496.14 57.5168 1496.19 63.1298Z" stroke="white" stroke-opacity="0.3"/>
<path opacity="0.454545" d="M1505.55 68.6373L1490.28 953.735C1490.16 960.804 1482.46 964.969 1471.88 963.681L263.53 816.555C254.314 815.432 244.993 810.403 240.121 803.923L-495.669 -174.559C-500.542 -181.039 -499.95 -187.618 -494.182 -191.082L262.019 -645.238C268.638 -649.214 280.329 -648.08 289.939 -642.532L1493.14 52.1372C1500.83 56.5776 1505.65 62.9798 1505.55 68.6373Z" stroke="white" stroke-opacity="0.3"/>
<path opacity="0.464646" d="M1514.59 74.1305L1477.24 949.533C1476.94 956.485 1469.26 960.448 1458.81 959.037L246.142 795.193C236.902 793.945 227.583 788.755 222.774 782.179L-493.108 -196.708C-497.917 -203.284 -497.202 -209.86 -491.316 -213.198L281.165 -651.26C287.819 -655.033 299.357 -653.726 308.835 -648.124L1502.25 57.2666C1510.03 61.8601 1514.83 68.4298 1514.59 74.1305Z" stroke="white" stroke-opacity="0.3"/>
<path opacity="0.474747" d="M1523.29 79.6024L1463.96 945.072C1463.49 951.905 1455.84 955.671 1445.53 954.142L228.934 773.69C219.673 772.316 210.36 766.965 205.618 760.294L-490.218 -218.681C-494.96 -225.353 -494.122 -231.925 -488.12 -235.137L300.343 -657.022C307.026 -660.598 318.407 -659.124 327.749 -653.472L1511.05 62.3696C1518.9 67.119 1523.69 73.8602 1523.29 79.6024Z" stroke="white" stroke-opacity="0.3"/>
<path opacity="0.484848" d="M1531.67 85.0466L1450.47 940.348C1449.83 947.061 1442.2 950.637 1432.03 948.994L211.91 752.048C202.631 750.55 193.329 745.038 188.656 738.271L-487.003 -240.476C-491.676 -247.244 -490.713 -253.813 -484.597 -256.898L319.543 -662.528C326.25 -665.911 337.47 -664.279 346.675 -658.58L1519.51 67.4405C1527.44 72.3484 1532.22 79.2648 1531.67 85.0466Z" stroke="white" stroke-opacity="0.3"/>
<path opacity="0.494949" d="M1539.71 90.4571L1436.76 935.361C1435.95 941.952 1428.36 945.343 1418.32 943.592L195.077 730.27C185.783 728.649 176.496 722.977 171.897 716.113L-483.465 -262.092C-488.063 -268.956 -486.975 -275.522 -480.749 -278.48L338.761 -667.782C345.486 -670.977 356.544 -669.193 365.61 -663.452L1527.66 72.4734C1535.66 77.5423 1540.42 84.6376 1539.71 90.4571Z" stroke="white" stroke-opacity="0.3"/>
<path opacity="0.50505" d="M1547.41 95.8296L1422.83 930.11C1421.87 936.579 1414.31 939.789 1404.41 937.936L178.437 708.363C169.131 706.62 159.863 700.787 155.341 693.827L-479.607 -283.524C-484.129 -290.484 -482.914 -297.046 -476.579 -299.877L357.988 -672.786C364.726 -675.796 375.618 -673.869 384.543 -668.088L1535.48 77.4641C1543.56 82.6965 1548.29 89.9746 1547.41 95.8296Z" stroke="white" stroke-opacity="0.3"/>
<path opacity="0.515152" d="M1554.78 101.161L1408.71 924.596C1407.58 930.942 1400.06 933.977 1390.31 932.026L161.998 686.331C152.683 684.467 143.439 678.474 138.997 671.417L-475.43 -304.769C-479.871 -311.825 -478.528 -318.383 -472.087 -321.086L377.221 -677.54C383.967 -680.371 394.692 -678.308 403.474 -672.49L1542.98 82.4098C1551.13 87.808 1555.82 95.2723 1554.78 101.161Z" stroke="white" stroke-opacity="0.3"/>
<path opacity="0.525253" d="M1561.81 106.444L1394.38 918.817C1393.1 925.039 1385.62 927.905 1376.01 925.86L145.763 664.178C136.441 662.195 127.227 656.041 122.87 648.889L-470.937 -325.824C-475.294 -332.976 -473.821 -339.529 -467.277 -342.105L396.451 -682.049C403.2 -684.705 413.757 -682.513 422.395 -676.662L1550.15 87.3044C1558.37 92.8707 1563.03 100.525 1561.81 106.444Z" stroke="white" stroke-opacity="0.3"/>
<path opacity="0.535354" d="M1568.5 111.678L1379.86 912.777C1378.42 918.875 1370.99 921.576 1361.52 919.443L129.735 641.911C120.411 639.81 111.23 633.497 106.961 626.249L-466.133 -346.684C-470.402 -353.931 -468.797 -360.479 -462.152 -362.928L415.671 -686.312C422.42 -688.798 432.806 -686.484 441.298 -680.602L1556.99 92.147C1565.27 97.8837 1569.9 105.731 1568.5 111.678Z" stroke="white" stroke-opacity="0.3"/>
<path opacity="0.545455" d="M1574.84 116.851L1365.15 906.469C1363.56 912.441 1356.17 914.983 1346.85 912.765L113.919 619.529C104.593 617.311 95.4517 610.838 91.2744 603.495L-461.022 -367.353C-465.199 -374.696 -463.462 -381.238 -456.719 -383.559L434.873 -690.339C441.617 -692.66 451.832 -690.23 460.177 -684.321L1563.51 96.9255C1571.85 102.834 1576.43 110.878 1574.84 116.851Z" stroke="white" stroke-opacity="0.3"/>
<path opacity="0.555556" d="M1580.85 121.967L1350.26 899.9C1348.52 905.747 1341.18 908.134 1332 905.836L98.3249 597.044C89.002 594.711 79.904 588.079 75.8228 580.641L-455.599 -387.819C-459.68 -395.256 -457.808 -401.792 -450.969 -403.985L454.059 -694.124C460.793 -696.283 470.837 -693.745 479.034 -687.812L1569.7 101.645C1578.11 107.728 1582.63 115.972 1580.85 121.967Z" stroke="white" stroke-opacity="0.3"/>
<path opacity="0.565657" d="M1586.51 127.011L1335.18 893.063C1333.31 898.783 1326.01 901.02 1316.98 898.646L82.9454 574.453C73.6273 572.005 64.5785 565.214 60.5975 557.683L-449.88 -408.089C-453.861 -415.62 -451.853 -422.15 -444.92 -424.215L473.209 -697.68C479.931 -699.682 489.802 -697.04 497.85 -691.086L1575.56 106.292C1584.02 112.551 1588.48 120.998 1586.51 127.011Z" stroke="white" stroke-opacity="0.3"/>
<path opacity="0.575758" d="M1591.84 131.988L1319.95 885.965C1317.93 891.559 1310.69 893.65 1301.8 891.205L67.8013 551.767C58.4906 549.206 49.496 542.258 45.6195 534.633L-443.853 -428.152C-447.729 -435.777 -445.582 -442.299 -438.559 -444.236L492.333 -701C499.039 -702.85 508.739 -700.112 516.636 -694.14L1581.1 110.87C1589.61 117.307 1594.01 125.96 1591.84 131.988Z" stroke="white" stroke-opacity="0.3"/>
<path opacity="0.585859" d="M1596.81 136.889L1304.54 878.603C1302.38 884.07 1295.19 886.02 1286.44 883.507L52.8771 528.988C43.5762 526.315 34.6413 519.211 30.8737 511.493L-437.538 -448.009C-441.306 -455.727 -439.019 -462.241 -431.907 -464.051L511.406 -704.093C518.093 -705.795 527.621 -702.965 535.367 -696.977L1586.3 115.372C1594.86 121.988 1599.19 130.849 1596.81 136.889Z" stroke="white" stroke-opacity="0.3"/>
<path opacity="0.59596" d="M1601.44 141.706L1288.97 870.974C1286.68 876.314 1279.54 878.127 1270.94 875.55L38.1903 506.118C28.9018 503.334 20.0319 496.075 16.3777 488.265L-430.927 -467.662C-434.581 -475.471 -432.152 -481.976 -424.954 -483.658L530.435 -706.963C537.1 -708.521 546.456 -705.606 554.05 -699.606L1591.18 119.791C1599.79 126.586 1604.03 135.658 1601.44 141.706Z" stroke="white" stroke-opacity="0.3"/>
<path opacity="0.606061" d="M1605.73 146.439L1273.25 863.083C1270.83 868.296 1263.74 869.976 1255.28 867.339L23.7416 483.164C14.468 480.272 5.66872 472.858 2.13266 464.958L-424.026 -487.103C-427.562 -495.003 -424.989 -501.498 -417.706 -503.054L549.412 -709.612C556.052 -711.03 565.236 -708.035 572.678 -702.025L1595.74 124.125C1604.38 131.102 1608.53 140.387 1605.73 146.439Z" stroke="white" stroke-opacity="0.3"/>
<path opacity="0.616162" d="M1609.67 151.082L1257.38 854.929C1254.83 860.016 1247.79 861.567 1239.48 858.872L9.53473 460.132C0.278481 457.131 -8.44481 449.565 -11.8581 441.575L-416.839 -506.333C-420.252 -514.322 -417.532 -520.806 -410.168 -522.234L568.329 -712.041C574.941 -713.324 583.955 -710.254 591.245 -704.237L1599.97 128.371C1608.64 135.53 1612.7 145.03 1609.67 151.082Z" stroke="white" stroke-opacity="0.3"/>
<path opacity="0.626263" d="M1613.26 155.626L1241.36 846.509C1238.69 851.469 1231.7 852.895 1223.54 850.147L-4.43055 437.022C-13.6671 433.914 -22.3086 426.196 -25.5941 418.119L-409.373 -525.351C-412.659 -533.428 -409.79 -539.9 -402.347 -541.202L587.176 -714.26C593.758 -715.411 602.602 -712.271 609.739 -706.249L1603.86 132.52C1612.57 139.862 1616.52 149.579 1613.26 155.626Z" stroke="white" stroke-opacity="0.3"/>
<path opacity="0.636364" d="M1616.51 160.075L1225.21 837.831C1222.42 842.664 1215.48 843.969 1207.46 841.17L-18.147 413.845C-27.3617 410.632 -35.9156 402.764 -39.0685 394.6L-401.629 -544.15C-404.782 -552.314 -401.762 -558.773 -394.242 -559.948L605.951 -716.263C612.502 -717.287 621.177 -714.082 628.161 -708.058L1607.44 136.577C1616.16 144.102 1620 154.036 1616.51 160.075Z" stroke="white" stroke-opacity="0.3"/>
<path opacity="0.646465" d="M1619.42 164.417L1208.93 828.889C1206.02 833.596 1199.14 834.783 1191.25 831.937L-31.6097 390.601C-40.8002 387.284 -49.2607 379.267 -52.2757 371.019L-393.609 -562.734C-396.624 -570.982 -393.45 -577.426 -385.855 -578.475L624.65 -718.062C631.166 -718.962 639.675 -715.696 646.506 -709.673L1610.69 140.531C1619.43 148.24 1623.14 158.392 1619.42 164.417Z" stroke="white" stroke-opacity="0.3"/>
<path opacity="0.656566" d="M1621.98 168.65L1192.52 819.687C1189.49 824.268 1182.67 825.341 1174.92 822.45L-44.8199 367.296C-53.9841 363.876 -62.3453 355.713 -65.2175 347.382L-385.322 -581.098C-388.194 -589.429 -384.863 -595.858 -377.196 -596.781L643.262 -719.656C649.742 -720.437 658.085 -717.114 664.763 -711.094L1613.61 144.38C1622.36 152.273 1625.94 162.644 1621.98 168.65Z" stroke="white" stroke-opacity="0.3"/>
<path opacity="0.666667" d="M1624.2 172.774L1175.99 810.228C1172.86 814.684 1166.08 815.646 1158.48 812.713L-57.7661 343.937C-66.9016 340.416 -75.1573 332.109 -77.8813 323.698L-376.762 -599.238C-379.486 -607.65 -375.996 -614.061 -368.259 -614.858L661.789 -721.047C668.232 -721.712 676.411 -718.336 682.935 -712.321L1616.21 148.126C1624.97 156.201 1628.4 166.792 1624.2 172.774Z" stroke="white" stroke-opacity="0.3"/>
<path opacity="0.676768" d="M1626.07 176.776L1159.35 800.507C1156.11 804.838 1149.39 805.692 1141.92 802.721L-70.454 320.524C-79.5586 316.903 -87.7031 308.454 -90.2735 299.964L-367.944 -617.16C-370.514 -625.65 -366.863 -632.042 -359.058 -632.714L680.217 -722.246C686.621 -722.798 694.638 -719.374 701.009 -713.366L1618.49 151.756C1627.25 160.013 1630.52 170.822 1626.07 176.776Z" stroke="white" stroke-opacity="0.3"/>
<path opacity="0.686869" d="M1627.6 180.655L1142.61 790.528C1139.26 794.735 1132.59 795.484 1125.26 792.476L-82.8742 297.063C-91.9458 293.343 -99.9729 284.755 -102.384 276.19L-358.865 -634.858C-361.276 -643.424 -357.46 -649.794 -349.59 -650.341L698.545 -723.252C704.909 -723.694 712.766 -720.225 718.985 -714.227L1620.46 155.271C1629.21 163.71 1632.31 174.737 1627.6 180.655Z" stroke="white" stroke-opacity="0.3"/>
<path opacity="0.69697" d="M1628.79 184.408L1125.76 780.292C1122.31 784.376 1115.7 785.023 1108.49 781.981L-95.0282 273.561C-104.065 269.743 -111.968 261.019 -114.215 252.38L-349.533 -652.331C-351.78 -660.97 -347.797 -667.317 -339.864 -667.74L716.765 -724.069C723.088 -724.406 730.786 -720.896 736.853 -714.909L1622.1 158.668C1630.83 167.287 1633.76 178.529 1628.79 184.408Z" stroke="white" stroke-opacity="0.3"/>
<path opacity="0.707071" d="M1629.64 188.032L1108.81 769.802C1105.26 773.764 1098.7 774.312 1091.63 771.237L-106.919 250.021C-115.919 246.108 -123.692 237.249 -125.769 228.54L-339.96 -669.577C-342.037 -678.286 -337.884 -684.607 -329.889 -684.906L734.864 -724.701C741.145 -724.936 748.688 -721.386 754.603 -715.413L1623.42 161.945C1632.13 170.742 1634.86 182.198 1629.64 188.032Z" stroke="white" stroke-opacity="0.3"/>
<path opacity="0.717172" d="M1630.15 191.52L1091.78 759.059C1088.14 762.898 1081.62 763.35 1074.68 760.245L-118.526 226.45C-127.487 222.441 -135.124 213.452 -137.025 204.677L-330.13 -686.595C-332.031 -695.371 -327.705 -701.664 -319.651 -701.839L752.855 -725.151C759.093 -725.286 766.483 -721.702 772.248 -715.743L1624.43 165.098C1633.11 174.072 1635.64 185.738 1630.15 191.52Z" stroke="white" stroke-opacity="0.3"/>
<path opacity="0.727273" d="M1630.32 194.867L1074.66 748.06C1070.93 751.779 1064.47 752.137 1057.65 749.004L-129.863 202.847C-138.782 198.745 -146.276 189.629 -147.996 180.791L-320.065 -703.388C-321.785 -712.227 -317.283 -718.489 -309.172 -718.541L770.717 -725.426C776.912 -725.465 784.15 -721.848 789.765 -715.906L1625.12 168.121C1633.76 177.27 1636.07 189.143 1630.32 194.867Z" stroke="white" stroke-opacity="0.3"/>
<path opacity="0.737374" d="M1630.16 198.068L1057.47 736.808C1053.65 740.406 1047.23 740.674 1040.54 737.514L-140.921 179.219C-149.797 175.024 -157.142 165.785 -158.676 156.887L-309.763 -719.954C-311.296 -728.852 -306.616 -735.082 -298.45 -735.01L788.448 -725.531C794.6 -725.477 801.689 -721.83 807.155 -715.906L1625.5 171.012C1634.1 180.332 1636.18 192.407 1630.16 198.068Z" stroke="white" stroke-opacity="0.3"/>
<path opacity="0.747475" d="M1629.66 201.123L1040.2 725.307C1036.29 728.786 1029.92 728.965 1023.36 725.78L-151.701 155.572C-160.531 151.287 -167.722 141.928 -169.063 132.975L-299.231 -736.29C-300.572 -745.243 -295.71 -751.435 -287.492 -751.242L806.041 -725.466C812.149 -725.322 819.093 -721.647 824.411 -715.742L1625.56 173.771C1634.11 183.259 1635.95 195.531 1629.66 201.123Z" stroke="white" stroke-opacity="0.3"/>
<path opacity="0.757576" d="M1628.87 204.05L1022.91 713.582C1018.91 716.943 1012.59 717.036 1006.15 713.827L-162.157 131.935C-170.94 127.56 -177.97 118.086 -179.112 109.082L-288.432 -752.371C-289.574 -761.375 -284.528 -767.527 -276.26 -767.212L823.535 -725.212C829.599 -724.981 836.4 -721.279 841.571 -715.396L1625.36 176.418C1633.85 186.072 1635.43 198.534 1628.87 204.05Z" stroke="white" stroke-opacity="0.3"/>
<path opacity="0.767677" d="M1627.71 206.801L1005.52 701.589C1001.44 704.834 995.17 704.842 988.846 701.611L-172.363 108.267C-181.098 103.804 -187.959 94.2188 -188.898 85.1688L-277.444 -768.242C-278.383 -777.292 -273.15 -783.401 -264.833 -782.964L840.847 -724.819C846.868 -724.502 853.529 -720.777 858.554 -714.915L1624.82 178.906C1633.23 188.721 1634.55 201.367 1627.71 206.801Z" stroke="white" stroke-opacity="0.3"/>
<path opacity="0.777778" d="M1626.23 209.388L988.079 689.347C983.918 692.476 977.69 692.402 971.483 689.15L-182.287 84.5888C-190.971 80.0388 -197.658 70.3475 -198.388 61.2566L-266.242 -783.887C-266.972 -792.978 -261.549 -799.04 -253.186 -798.481L858.003 -724.274C863.982 -723.875 870.504 -720.128 875.385 -714.289L1623.97 181.248C1632.3 191.221 1633.33 204.043 1626.23 209.388Z" stroke="white" stroke-opacity="0.3"/>
<path opacity="0.787879" d="M1624.41 211.81L970.588 676.861C966.349 679.876 960.165 679.721 954.071 676.448L-191.922 60.9085C-200.552 56.2728 -207.06 46.4805 -207.575 37.3542L-254.826 -799.301C-255.342 -808.427 -249.726 -814.438 -241.319 -813.759L875.003 -723.578C880.939 -723.098 887.327 -719.331 892.065 -713.516L1622.81 183.447C1631.06 193.573 1631.79 206.56 1624.41 211.81Z" stroke="white" stroke-opacity="0.3"/>
<path opacity="0.79798" d="M1622.28 214.071L953.061 664.139C948.746 667.041 942.605 666.808 936.622 663.515L-201.259 37.2372C-209.835 32.5173 -216.157 22.6292 -216.452 13.4731L-243.195 -814.478C-243.49 -823.634 -237.68 -829.589 -229.231 -828.79L891.847 -722.729C897.742 -722.171 903.998 -718.385 908.594 -712.594L1621.36 185.506C1629.52 195.779 1629.94 208.923 1622.28 214.071Z" stroke="white" stroke-opacity="0.3"/>
<path opacity="0.808081" d="M1619.83 216.161L935.497 651.177C931.108 653.967 925.007 653.657 919.133 650.345L-210.308 13.5725C-218.827 8.76963 -224.957 -1.20848 -225.028 -10.388L-231.362 -829.425C-231.433 -838.605 -225.426 -844.5 -216.937 -843.581L908.522 -721.738C914.375 -721.104 920.503 -717.3 924.958 -711.535L1619.61 187.416C1627.66 197.832 1627.76 211.12 1619.83 216.161Z" stroke="white" stroke-opacity="0.3"/>
<path opacity="0.818182" d="M1617.08 218.076L917.911 637.978C913.45 640.657 907.387 640.271 901.619 636.941L-219.055 -10.0801C-227.515 -14.9646 -233.447 -25.0269 -233.289 -34.2237L-219.32 -844.141C-219.162 -853.338 -212.955 -859.168 -204.429 -858.13L925.032 -720.608C930.845 -719.901 936.848 -716.079 941.164 -710.34L1617.57 189.176C1625.51 199.728 1625.28 213.15 1617.08 218.076Z" stroke="white" stroke-opacity="0.3"/>
<path opacity="0.828283" d="M1614 219.811L900.294 624.541C895.762 627.111 889.737 626.651 884.072 623.303L-227.514 -33.719C-235.914 -38.6838 -241.643 -48.8238 -241.25 -58.0309L-207.091 -858.628C-206.698 -867.835 -200.291 -873.595 -191.729 -872.439L941.358 -719.347C947.132 -718.567 953.013 -714.73 957.192 -709.016L1615.23 190.782C1623.05 201.464 1622.47 215.006 1614 219.811Z" stroke="white" stroke-opacity="0.3"/>
<path opacity="0.838384" d="M1610.62 221.372L882.669 610.876C878.067 613.338 872.077 612.806 866.513 609.439L-235.668 -57.331C-244.005 -62.3747 -249.525 -72.5861 -248.894 -81.7965L-194.662 -872.878C-194.031 -882.088 -187.42 -887.773 -178.825 -886.498L957.511 -717.95C963.248 -717.099 969.01 -713.246 973.053 -707.559L1612.61 192.24C1620.29 203.047 1619.36 216.694 1610.62 221.372Z" stroke="white" stroke-opacity="0.3"/>
<path opacity="0.848485" d="M1606.92 222.745L865.027 596.978C860.357 599.333 854.401 598.729 848.934 595.345L-243.529 -80.9213C-251.802 -86.0425 -257.108 -96.3185 -256.234 -105.525L-182.051 -886.9C-181.177 -896.106 -174.363 -901.711 -165.736 -900.318L973.473 -716.432C979.173 -715.512 984.82 -711.644 988.728 -705.982L1609.7 193.54C1617.24 204.463 1615.93 218.2 1606.92 222.745Z" stroke="white" stroke-opacity="0.3"/>
<path opacity="0.858586" d="M1602.94 223.935L847.386 582.855C842.65 585.105 836.724 584.43 831.353 581.028L-251.084 -104.478C-259.291 -109.675 -264.379 -120.009 -263.259 -129.203L-169.252 -900.687C-168.131 -909.882 -161.112 -915.399 -152.455 -913.89L989.25 -714.788C994.916 -713.8 1000.45 -709.917 1004.23 -704.281L1606.5 194.687C1613.89 205.719 1612.21 219.531 1602.94 223.935Z" stroke="white" stroke-opacity="0.3"/>
<path opacity="0.868687" d="M1598.66 224.934L829.748 568.504C824.945 570.65 819.049 569.905 813.769 566.485L-258.337 -128.003C-266.476 -133.275 -271.341 -143.658 -269.971 -152.833L-156.273 -914.246C-154.903 -923.421 -147.677 -928.846 -138.994 -927.22L1004.83 -713.03C1010.47 -711.975 1015.89 -708.077 1019.54 -702.468L1603.03 195.673C1610.26 206.806 1608.19 220.675 1598.66 224.934Z" stroke="white" stroke-opacity="0.3"/>
<path opacity="0.878788" d="M1594.08 225.742L812.112 553.931C807.244 555.974 801.374 555.16 796.183 551.721L-265.294 -151.488C-273.363 -156.834 -278.001 -167.26 -276.379 -176.406L-143.125 -927.574C-141.502 -936.72 -134.07 -942.047 -125.361 -940.305L1020.21 -711.159C1025.81 -710.039 1031.13 -706.126 1034.65 -700.542L1599.26 196.501C1606.33 207.727 1603.86 221.634 1594.08 225.742Z" stroke="white" stroke-opacity="0.3"/>
<path opacity="0.888889" d="M1589.21 226.355L794.491 539.138C789.559 541.079 783.713 540.196 778.609 536.738L-271.945 -174.931C-279.943 -180.349 -284.35 -190.809 -282.472 -199.918L-129.804 -940.672C-127.927 -949.781 -120.287 -955.003 -111.556 -953.145L1035.39 -709.181C1040.96 -707.996 1046.18 -704.067 1049.57 -698.508L1595.22 197.167C1602.12 208.478 1599.24 222.405 1589.21 226.355Z" stroke="white" stroke-opacity="0.3"/>
<path opacity="0.89899" d="M1584.06 226.771L776.891 524.127C771.894 525.967 766.07 525.016 761.049 521.538L-278.292 -198.327C-286.216 -203.815 -290.389 -214.303 -288.255 -223.366L-116.317 -953.54C-114.183 -962.603 -106.337 -967.714 -97.5855 -965.742L1050.36 -707.1C1055.91 -705.851 1061.03 -701.906 1064.29 -696.372L1590.91 197.67C1597.62 209.056 1594.34 222.984 1584.06 226.771Z" stroke="white" stroke-opacity="0.3"/>
<path opacity="0.909091" d="M1578.63 226.987L759.313 508.899C754.252 510.64 748.447 509.621 743.507 506.123L-284.337 -221.674C-292.186 -227.231 -296.121 -237.736 -293.729 -246.745L-102.671 -966.18C-100.279 -975.189 -92.2279 -980.182 -83.4573 -978.096L1065.12 -704.922C1070.64 -703.609 1075.66 -699.648 1078.8 -694.138L1586.32 198.008C1592.84 209.46 1589.14 223.369 1578.63 226.987Z" stroke="white" stroke-opacity="0.3"/>
<path opacity="0.919192" d="M1572.93 227.007L741.776 493.464C736.652 495.107 730.863 494.02 726.001 490.5L-290.067 -244.96C-297.839 -250.585 -301.534 -261.101 -298.883 -270.046L-88.8578 -978.586C-86.2063 -987.532 -77.9512 -992.4 -69.164 -990.201L1079.67 -702.645C1085.17 -701.269 1090.1 -697.291 1093.11 -691.803L1581.47 198.185C1587.79 209.694 1583.68 223.562 1572.93 227.007Z" stroke="white" stroke-opacity="0.3"/>
<path opacity="0.929293" d="M1566.96 226.822L724.27 477.817C719.081 479.362 713.307 478.207 708.52 474.665L-295.498 -268.19C-303.191 -273.882 -306.644 -284.399 -303.733 -293.271L-74.8971 -990.767C-71.9863 -999.639 -63.5286 -1004.38 -54.7272 -1002.06L1094 -700.282C1099.48 -698.843 1104.32 -694.847 1107.21 -689.381L1576.35 198.192C1582.46 209.748 1577.93 223.554 1566.96 226.822Z" stroke="white" stroke-opacity="0.3"/>
<path opacity="0.939394" d="M1560.72 226.435L706.811 461.967C701.558 463.416 695.794 462.192 691.079 458.626L-300.619 -291.353C-308.231 -297.11 -311.44 -307.62 -308.27 -316.41L-60.7839 -1002.72C-57.614 -1011.51 -48.9561 -1016.11 -40.1425 -1013.68L1108.1 -697.831C1113.56 -696.329 1118.32 -692.313 1121.09 -686.869L1570.97 198.034C1576.86 209.627 1571.91 223.349 1560.72 226.435Z" stroke="white" stroke-opacity="0.3"/>
<path opacity="0.949495" d="M1554.22 225.838L689.392 445.908C684.074 447.262 678.318 445.969 673.673 442.379L-305.441 -314.453C-312.971 -320.273 -315.935 -330.768 -312.507 -339.467L-46.5338 -1014.44C-43.1059 -1023.14 -34.2503 -1027.6 -25.4267 -1025.06L1121.98 -695.305C1127.42 -693.74 1132.09 -689.704 1134.74 -684.28L1565.31 197.701C1570.98 209.321 1565.62 222.938 1554.22 225.838Z" stroke="white" stroke-opacity="0.3"/>
<path opacity="0.959596" d="M1547.48 225.041L672.039 429.659C666.655 430.917 660.905 429.556 656.327 425.939L-309.947 -337.474C-317.392 -343.356 -320.111 -353.826 -316.427 -362.425L-32.1321 -1025.93C-28.4478 -1034.53 -19.398 -1038.84 -10.5664 -1036.19L1135.63 -692.695C1141.06 -691.067 1145.65 -687.008 1148.18 -681.604L1559.4 197.205C1564.85 208.842 1559.07 222.332 1547.48 225.041Z" stroke="white" stroke-opacity="0.3"/>
<path opacity="0.969697" d="M1540.47 224.03L654.74 413.205C649.29 414.369 643.543 412.938 639.029 409.294L-314.149 -360.425C-321.508 -366.368 -323.982 -376.806 -320.044 -385.296L-17.5984 -1037.2C-13.6598 -1045.69 -4.41942 -1049.84 4.41776 -1047.08L1149.04 -690.02C1154.46 -688.33 1158.98 -684.247 1161.39 -678.86L1553.23 196.529C1558.44 208.172 1552.25 221.514 1540.47 224.03Z" stroke="white" stroke-opacity="0.3"/>
<path opacity="0.979798" d="M1533.23 222.815L637.516 396.564C631.999 397.635 626.251 396.133 621.799 392.459L-318.037 -383.291C-325.308 -389.292 -327.537 -399.69 -323.347 -408.061L-2.92347 -1048.24C1.26651 -1056.61 10.6931 -1060.59 19.5339 -1057.73L1162.23 -687.274C1167.64 -685.519 1172.09 -681.411 1174.38 -676.041L1546.81 195.684C1551.78 207.323 1545.19 220.495 1533.23 222.815Z" stroke="white" stroke-opacity="0.3"/>
<path opacity="0.989899" d="M1525.74 221.386L620.353 379.729C614.768 380.706 609.016 379.133 604.625 375.428L-321.628 -406.077C-328.809 -412.137 -330.795 -422.485 -326.357 -430.73L11.8696 -1059.05C16.3075 -1067.3 25.9156 -1071.11 34.7578 -1068.14L1175.17 -684.469C1180.57 -682.65 1184.94 -678.515 1187.12 -673.161L1540.13 194.658C1544.86 206.282 1537.87 219.265 1525.74 221.386Z" stroke="white" stroke-opacity="0.3"/>
<path d="M1518.02 219.749L603.272 362.71C597.617 363.594 591.859 361.949 587.525 358.21L-324.907 -428.773C-331.997 -434.888 -333.74 -445.18 -329.059 -453.289L26.7915 -1069.64C31.4731 -1077.75 41.2575 -1081.38 50.0989 -1078.3L1187.86 -681.604C1193.27 -679.72 1197.57 -675.556 1199.63 -670.216L1533.2 193.458C1537.68 205.057 1530.3 217.829 1518.02 219.749Z" stroke="white" stroke-opacity="0.3"/>
</g>
</g>
</svg>