<?xml version="1.0" encoding="UTF-8"?>
<svg id="Capa_2" data-name="Capa 2" xmlns="http://www.w3.org/2000/svg" viewBox="0 0 72.05 70.41">
  <g id="Capa_1-2" data-name="Capa 1">
    <path d="m61.05,41.73v-15.13l-12-6.46V7.63L36.04,0l-12,7.08v13.56l-13.02,6.97.51,13.73-10.45,6.27-1.09,15.21,13.65,6.37,9.11-7.14,14.3,8.36,12.82-7.85,10.14,6.64,12.03-7.1v-14.5l-11-5.87ZM26.05,8.22l10-5.9,11,6.45v10.29l-10-5.38-11,5.89v-11.35Zm-12.66,58.63l-11.29-5.27.91-12.79,8.61-5.17.45,12.16,8.84,5.17-7.52,5.89Zm34.64-5.5l-10.99,6.73-12.58-7.36-1.86-1.09-8.57-5.02-.45-12.16-.08-2.28-.42-11.38,10.98-5.88,2-1.07,11-5.89,10,5.39,2,1.08,10,5.38v26.8l-9.13,5.59-1.89,1.16Zm22.02-.39l-9.97,5.88-8.31-5.44,9.28-5.68v-11.72l9,4.8v12.15Z"/>
  </g>
</svg>